<?xml version="1.0" encoding="utf-8"?>
<svg xmlns="http://www.w3.org/2000/svg" xmlns:xlink="http://www.w3.org/1999/xlink" width="800" height="400" viewBox="0 0 3200 1600">
<defs>
  <clipPath id="clip2400">
    <rect x="0" y="0" width="3200" height="1600"/>
  </clipPath>
</defs>
<path clip-path="url(#clip2400)" d="
M0 1600 L3200 1600 L3200 0 L0 0  Z
  " fill="#ffffff" fill-rule="evenodd" fill-opacity="1"/>
<defs>
  <clipPath id="clip2401">
    <rect x="640" y="0" width="2241" height="1600"/>
  </clipPath>
</defs>
<path clip-path="url(#clip2400)" d="
M220.603 1465.72 L1559.96 1465.72 L1559.96 47.2441 L220.603 47.2441  Z
  " fill="#ffffff" fill-rule="evenodd" fill-opacity="1"/>
<defs>
  <clipPath id="clip2402">
    <rect x="220" y="47" width="1340" height="1419"/>
  </clipPath>
</defs>
<polyline clip-path="url(#clip2402)" style="stroke:#000000; stroke-width:2; stroke-opacity:0.1; fill:none" points="
  220.603,1465.72 220.603,47.2441 
  "/>
<polyline clip-path="url(#clip2402)" style="stroke:#000000; stroke-width:2; stroke-opacity:0.1; fill:none" points="
  433.876,1465.72 433.876,47.2441 
  "/>
<polyline clip-path="url(#clip2402)" style="stroke:#000000; stroke-width:2; stroke-opacity:0.1; fill:none" points="
  647.148,1465.72 647.148,47.2441 
  "/>
<polyline clip-path="url(#clip2402)" style="stroke:#000000; stroke-width:2; stroke-opacity:0.1; fill:none" points="
  860.421,1465.72 860.421,47.2441 
  "/>
<polyline clip-path="url(#clip2402)" style="stroke:#000000; stroke-width:2; stroke-opacity:0.1; fill:none" points="
  1073.69,1465.72 1073.69,47.2441 
  "/>
<polyline clip-path="url(#clip2402)" style="stroke:#000000; stroke-width:2; stroke-opacity:0.1; fill:none" points="
  1286.97,1465.72 1286.97,47.2441 
  "/>
<polyline clip-path="url(#clip2402)" style="stroke:#000000; stroke-width:2; stroke-opacity:0.1; fill:none" points="
  1500.24,1465.72 1500.24,47.2441 
  "/>
<polyline clip-path="url(#clip2402)" style="stroke:#000000; stroke-width:2; stroke-opacity:0.1; fill:none" points="
  220.603,1433.75 1559.96,1433.75 
  "/>
<polyline clip-path="url(#clip2402)" style="stroke:#000000; stroke-width:2; stroke-opacity:0.1; fill:none" points="
  220.603,1208 1559.96,1208 
  "/>
<polyline clip-path="url(#clip2402)" style="stroke:#000000; stroke-width:2; stroke-opacity:0.1; fill:none" points="
  220.603,982.241 1559.96,982.241 
  "/>
<polyline clip-path="url(#clip2402)" style="stroke:#000000; stroke-width:2; stroke-opacity:0.1; fill:none" points="
  220.603,756.485 1559.96,756.485 
  "/>
<polyline clip-path="url(#clip2402)" style="stroke:#000000; stroke-width:2; stroke-opacity:0.1; fill:none" points="
  220.603,530.729 1559.96,530.729 
  "/>
<polyline clip-path="url(#clip2402)" style="stroke:#000000; stroke-width:2; stroke-opacity:0.1; fill:none" points="
  220.603,304.973 1559.96,304.973 
  "/>
<polyline clip-path="url(#clip2402)" style="stroke:#000000; stroke-width:2; stroke-opacity:0.1; fill:none" points="
  220.603,79.2171 1559.96,79.2171 
  "/>
<polyline clip-path="url(#clip2400)" style="stroke:#000000; stroke-width:4; stroke-opacity:1; fill:none" points="
  220.603,1465.72 1559.96,1465.72 
  "/>
<polyline clip-path="url(#clip2400)" style="stroke:#000000; stroke-width:4; stroke-opacity:1; fill:none" points="
  220.603,1465.72 220.603,47.2441 
  "/>
<polyline clip-path="url(#clip2400)" style="stroke:#000000; stroke-width:4; stroke-opacity:1; fill:none" points="
  220.603,1465.72 220.603,1482.75 
  "/>
<polyline clip-path="url(#clip2400)" style="stroke:#000000; stroke-width:4; stroke-opacity:1; fill:none" points="
  433.876,1465.72 433.876,1482.75 
  "/>
<polyline clip-path="url(#clip2400)" style="stroke:#000000; stroke-width:4; stroke-opacity:1; fill:none" points="
  647.148,1465.72 647.148,1482.75 
  "/>
<polyline clip-path="url(#clip2400)" style="stroke:#000000; stroke-width:4; stroke-opacity:1; fill:none" points="
  860.421,1465.72 860.421,1482.75 
  "/>
<polyline clip-path="url(#clip2400)" style="stroke:#000000; stroke-width:4; stroke-opacity:1; fill:none" points="
  1073.69,1465.72 1073.69,1482.75 
  "/>
<polyline clip-path="url(#clip2400)" style="stroke:#000000; stroke-width:4; stroke-opacity:1; fill:none" points="
  1286.97,1465.72 1286.97,1482.75 
  "/>
<polyline clip-path="url(#clip2400)" style="stroke:#000000; stroke-width:4; stroke-opacity:1; fill:none" points="
  1500.24,1465.72 1500.24,1482.75 
  "/>
<polyline clip-path="url(#clip2400)" style="stroke:#000000; stroke-width:4; stroke-opacity:1; fill:none" points="
  220.603,1433.75 204.53,1433.75 
  "/>
<polyline clip-path="url(#clip2400)" style="stroke:#000000; stroke-width:4; stroke-opacity:1; fill:none" points="
  220.603,1208 204.53,1208 
  "/>
<polyline clip-path="url(#clip2400)" style="stroke:#000000; stroke-width:4; stroke-opacity:1; fill:none" points="
  220.603,982.241 204.53,982.241 
  "/>
<polyline clip-path="url(#clip2400)" style="stroke:#000000; stroke-width:4; stroke-opacity:1; fill:none" points="
  220.603,756.485 204.53,756.485 
  "/>
<polyline clip-path="url(#clip2400)" style="stroke:#000000; stroke-width:4; stroke-opacity:1; fill:none" points="
  220.603,530.729 204.53,530.729 
  "/>
<polyline clip-path="url(#clip2400)" style="stroke:#000000; stroke-width:4; stroke-opacity:1; fill:none" points="
  220.603,304.973 204.53,304.973 
  "/>
<polyline clip-path="url(#clip2400)" style="stroke:#000000; stroke-width:4; stroke-opacity:1; fill:none" points="
  220.603,79.2171 204.53,79.2171 
  "/>
<path clip-path="url(#clip2400)" d="M 0 0 M220.603 1499.71 Q216.992 1499.71 215.163 1503.28 Q213.357 1506.82 213.357 1513.95 Q213.357 1521.06 215.163 1524.62 Q216.992 1528.16 220.603 1528.16 Q224.237 1528.16 226.043 1524.62 Q227.871 1521.06 227.871 1513.95 Q227.871 1506.82 226.043 1503.28 Q224.237 1499.71 220.603 1499.71 M220.603 1496.01 Q226.413 1496.01 229.468 1500.62 Q232.547 1505.2 232.547 1513.95 Q232.547 1522.68 229.468 1527.28 Q226.413 1531.87 220.603 1531.87 Q214.793 1531.87 211.714 1527.28 Q208.658 1522.68 208.658 1513.95 Q208.658 1505.2 211.714 1500.62 Q214.793 1496.01 220.603 1496.01 Z" fill="#000000" fill-rule="evenodd" fill-opacity="1" /><path clip-path="url(#clip2400)" d="M 0 0 M424.258 1527.26 L431.896 1527.26 L431.896 1500.9 L423.586 1502.56 L423.586 1498.3 L431.85 1496.64 L436.526 1496.64 L436.526 1527.26 L444.165 1527.26 L444.165 1531.2 L424.258 1531.2 L424.258 1527.26 Z" fill="#000000" fill-rule="evenodd" fill-opacity="1" /><path clip-path="url(#clip2400)" d="M 0 0 M641.801 1527.26 L658.12 1527.26 L658.12 1531.2 L636.176 1531.2 L636.176 1527.26 Q638.838 1524.51 643.421 1519.88 Q648.028 1515.22 649.208 1513.88 Q651.454 1511.36 652.333 1509.62 Q653.236 1507.86 653.236 1506.17 Q653.236 1503.42 651.292 1501.68 Q649.371 1499.95 646.269 1499.95 Q644.07 1499.95 641.616 1500.71 Q639.185 1501.47 636.408 1503.02 L636.408 1498.3 Q639.232 1497.17 641.685 1496.59 Q644.139 1496.01 646.176 1496.01 Q651.546 1496.01 654.741 1498.7 Q657.935 1501.38 657.935 1505.87 Q657.935 1508 657.125 1509.92 Q656.338 1511.82 654.232 1514.41 Q653.653 1515.08 650.551 1518.3 Q647.449 1521.5 641.801 1527.26 Z" fill="#000000" fill-rule="evenodd" fill-opacity="1" /><path clip-path="url(#clip2400)" d="M 0 0 M864.669 1512.56 Q868.025 1513.28 869.9 1515.55 Q871.798 1517.82 871.798 1521.15 Q871.798 1526.27 868.28 1529.07 Q864.761 1531.87 858.28 1531.87 Q856.104 1531.87 853.789 1531.43 Q851.498 1531.01 849.044 1530.15 L849.044 1525.64 Q850.988 1526.77 853.303 1527.35 Q855.618 1527.93 858.141 1527.93 Q862.539 1527.93 864.831 1526.2 Q867.146 1524.46 867.146 1521.15 Q867.146 1518.09 864.993 1516.38 Q862.863 1514.65 859.044 1514.65 L855.016 1514.65 L855.016 1510.8 L859.229 1510.8 Q862.678 1510.8 864.507 1509.44 Q866.335 1508.05 866.335 1505.46 Q866.335 1502.79 864.437 1501.38 Q862.562 1499.95 859.044 1499.95 Q857.123 1499.95 854.923 1500.36 Q852.724 1500.78 850.086 1501.66 L850.086 1497.49 Q852.748 1496.75 855.062 1496.38 Q857.4 1496.01 859.46 1496.01 Q864.785 1496.01 867.886 1498.44 Q870.988 1500.85 870.988 1504.97 Q870.988 1507.84 869.345 1509.83 Q867.701 1511.8 864.669 1512.56 Z" fill="#000000" fill-rule="evenodd" fill-opacity="1" /><path clip-path="url(#clip2400)" d="M 0 0 M1076.7 1500.71 L1064.9 1519.16 L1076.7 1519.16 L1076.7 1500.71 M1075.48 1496.64 L1081.36 1496.64 L1081.36 1519.16 L1086.29 1519.16 L1086.29 1523.05 L1081.36 1523.05 L1081.36 1531.2 L1076.7 1531.2 L1076.7 1523.05 L1061.1 1523.05 L1061.1 1518.53 L1075.48 1496.64 Z" fill="#000000" fill-rule="evenodd" fill-opacity="1" /><path clip-path="url(#clip2400)" d="M 0 0 M1277.24 1496.64 L1295.6 1496.64 L1295.6 1500.57 L1281.53 1500.57 L1281.53 1509.04 Q1282.55 1508.7 1283.56 1508.53 Q1284.58 1508.35 1285.6 1508.35 Q1291.39 1508.35 1294.77 1511.52 Q1298.15 1514.69 1298.15 1520.11 Q1298.15 1525.69 1294.68 1528.79 Q1291.2 1531.87 1284.88 1531.87 Q1282.71 1531.87 1280.44 1531.5 Q1278.19 1531.13 1275.79 1530.39 L1275.79 1525.69 Q1277.87 1526.82 1280.09 1527.38 Q1282.31 1527.93 1284.79 1527.93 Q1288.8 1527.93 1291.13 1525.83 Q1293.47 1523.72 1293.47 1520.11 Q1293.47 1516.5 1291.13 1514.39 Q1288.8 1512.28 1284.79 1512.28 Q1282.92 1512.28 1281.04 1512.7 Q1279.19 1513.12 1277.24 1514 L1277.24 1496.64 Z" fill="#000000" fill-rule="evenodd" fill-opacity="1" /><path clip-path="url(#clip2400)" d="M 0 0 M1500.64 1512.05 Q1497.5 1512.05 1495.64 1514.21 Q1493.82 1516.36 1493.82 1520.11 Q1493.82 1523.83 1495.64 1526.01 Q1497.5 1528.16 1500.64 1528.16 Q1503.79 1528.16 1505.62 1526.01 Q1507.47 1523.83 1507.47 1520.11 Q1507.47 1516.36 1505.62 1514.21 Q1503.79 1512.05 1500.64 1512.05 M1509.93 1497.4 L1509.93 1501.66 Q1508.17 1500.83 1506.36 1500.39 Q1504.58 1499.95 1502.82 1499.95 Q1498.19 1499.95 1495.74 1503.07 Q1493.31 1506.2 1492.96 1512.52 Q1494.33 1510.5 1496.39 1509.44 Q1498.45 1508.35 1500.92 1508.35 Q1506.13 1508.35 1509.14 1511.52 Q1512.17 1514.67 1512.17 1520.11 Q1512.17 1525.43 1509.02 1528.65 Q1505.88 1531.87 1500.64 1531.87 Q1494.65 1531.87 1491.48 1527.28 Q1488.31 1522.68 1488.31 1513.95 Q1488.31 1505.76 1492.2 1500.9 Q1496.08 1496.01 1502.64 1496.01 Q1504.39 1496.01 1506.18 1496.36 Q1507.98 1496.71 1509.93 1497.4 Z" fill="#000000" fill-rule="evenodd" fill-opacity="1" /><path clip-path="url(#clip2400)" d="M 0 0 M98.367 1436.15 L110.844 1436.15 L110.844 1439.94 L98.367 1439.94 L98.367 1436.15 Z" fill="#000000" fill-rule="evenodd" fill-opacity="1" /><path clip-path="url(#clip2400)" d="M 0 0 M116.723 1447.1 L124.362 1447.1 L124.362 1420.73 L116.052 1422.4 L116.052 1418.14 L124.316 1416.47 L128.992 1416.47 L128.992 1447.1 L136.631 1447.1 L136.631 1451.03 L116.723 1451.03 L116.723 1447.1 Z" fill="#000000" fill-rule="evenodd" fill-opacity="1" /><path clip-path="url(#clip2400)" d="M 0 0 M141.7 1445.15 L146.584 1445.15 L146.584 1451.03 L141.7 1451.03 L141.7 1445.15 Z" fill="#000000" fill-rule="evenodd" fill-opacity="1" /><path clip-path="url(#clip2400)" d="M 0 0 M151.7 1416.47 L170.056 1416.47 L170.056 1420.41 L155.982 1420.41 L155.982 1428.88 Q157.001 1428.53 158.019 1428.37 Q159.038 1428.19 160.056 1428.19 Q165.843 1428.19 169.223 1431.36 Q172.603 1434.53 172.603 1439.94 Q172.603 1445.52 169.131 1448.63 Q165.658 1451.7 159.339 1451.7 Q157.163 1451.7 154.894 1451.33 Q152.649 1450.96 150.242 1450.22 L150.242 1445.52 Q152.325 1446.66 154.547 1447.21 Q156.769 1447.77 159.246 1447.77 Q163.251 1447.77 165.589 1445.66 Q167.927 1443.56 167.927 1439.94 Q167.927 1436.33 165.589 1434.23 Q163.251 1432.12 159.246 1432.12 Q157.371 1432.12 155.496 1432.54 Q153.644 1432.95 151.7 1433.83 L151.7 1416.47 Z" fill="#000000" fill-rule="evenodd" fill-opacity="1" /><path clip-path="url(#clip2400)" d="M 0 0 M97.3716 1210.39 L109.848 1210.39 L109.848 1214.19 L97.3716 1214.19 L97.3716 1210.39 Z" fill="#000000" fill-rule="evenodd" fill-opacity="1" /><path clip-path="url(#clip2400)" d="M 0 0 M115.728 1221.34 L123.367 1221.34 L123.367 1194.98 L115.057 1196.64 L115.057 1192.38 L123.321 1190.72 L127.996 1190.72 L127.996 1221.34 L135.635 1221.34 L135.635 1225.28 L115.728 1225.28 L115.728 1221.34 Z" fill="#000000" fill-rule="evenodd" fill-opacity="1" /><path clip-path="url(#clip2400)" d="M 0 0 M140.705 1219.4 L145.589 1219.4 L145.589 1225.28 L140.705 1225.28 L140.705 1219.4 Z" fill="#000000" fill-rule="evenodd" fill-opacity="1" /><path clip-path="url(#clip2400)" d="M 0 0 M160.658 1193.8 Q157.047 1193.8 155.219 1197.36 Q153.413 1200.9 153.413 1208.03 Q153.413 1215.14 155.219 1218.7 Q157.047 1222.24 160.658 1222.24 Q164.293 1222.24 166.098 1218.7 Q167.927 1215.14 167.927 1208.03 Q167.927 1200.9 166.098 1197.36 Q164.293 1193.8 160.658 1193.8 M160.658 1190.09 Q166.468 1190.09 169.524 1194.7 Q172.603 1199.28 172.603 1208.03 Q172.603 1216.76 169.524 1221.36 Q166.468 1225.95 160.658 1225.95 Q154.848 1225.95 151.769 1221.36 Q148.714 1216.76 148.714 1208.03 Q148.714 1199.28 151.769 1194.7 Q154.848 1190.09 160.658 1190.09 Z" fill="#000000" fill-rule="evenodd" fill-opacity="1" /><path clip-path="url(#clip2400)" d="M 0 0 M97.1402 984.637 L109.617 984.637 L109.617 988.433 L97.1402 988.433 L97.1402 984.637 Z" fill="#000000" fill-rule="evenodd" fill-opacity="1" /><path clip-path="url(#clip2400)" d="M 0 0 M124.686 968.039 Q121.075 968.039 119.247 971.604 Q117.441 975.146 117.441 982.275 Q117.441 989.382 119.247 992.947 Q121.075 996.488 124.686 996.488 Q128.321 996.488 130.126 992.947 Q131.955 989.382 131.955 982.275 Q131.955 975.146 130.126 971.604 Q128.321 968.039 124.686 968.039 M124.686 964.336 Q130.496 964.336 133.552 968.942 Q136.631 973.526 136.631 982.275 Q136.631 991.002 133.552 995.609 Q130.496 1000.19 124.686 1000.19 Q118.876 1000.19 115.797 995.609 Q112.742 991.002 112.742 982.275 Q112.742 973.526 115.797 968.942 Q118.876 964.336 124.686 964.336 Z" fill="#000000" fill-rule="evenodd" fill-opacity="1" /><path clip-path="url(#clip2400)" d="M 0 0 M141.7 993.641 L146.584 993.641 L146.584 999.521 L141.7 999.521 L141.7 993.641 Z" fill="#000000" fill-rule="evenodd" fill-opacity="1" /><path clip-path="url(#clip2400)" d="M 0 0 M151.7 964.961 L170.056 964.961 L170.056 968.896 L155.982 968.896 L155.982 977.368 Q157.001 977.021 158.019 976.859 Q159.038 976.674 160.056 976.674 Q165.843 976.674 169.223 979.845 Q172.603 983.016 172.603 988.433 Q172.603 994.012 169.131 997.113 Q165.658 1000.19 159.339 1000.19 Q157.163 1000.19 154.894 999.822 Q152.649 999.451 150.242 998.711 L150.242 994.012 Q152.325 995.146 154.547 995.701 Q156.769 996.257 159.246 996.257 Q163.251 996.257 165.589 994.15 Q167.927 992.044 167.927 988.433 Q167.927 984.822 165.589 982.715 Q163.251 980.609 159.246 980.609 Q157.371 980.609 155.496 981.025 Q153.644 981.442 151.7 982.322 L151.7 964.961 Z" fill="#000000" fill-rule="evenodd" fill-opacity="1" /><path clip-path="url(#clip2400)" d="M 0 0 M123.691 742.284 Q120.08 742.284 118.251 745.848 Q116.446 749.39 116.446 756.52 Q116.446 763.626 118.251 767.191 Q120.08 770.732 123.691 770.732 Q127.325 770.732 129.131 767.191 Q130.959 763.626 130.959 756.52 Q130.959 749.39 129.131 745.848 Q127.325 742.284 123.691 742.284 M123.691 738.58 Q129.501 738.58 132.557 743.186 Q135.635 747.77 135.635 756.52 Q135.635 765.246 132.557 769.853 Q129.501 774.436 123.691 774.436 Q117.881 774.436 114.802 769.853 Q111.747 765.246 111.747 756.52 Q111.747 747.77 114.802 743.186 Q117.881 738.58 123.691 738.58 Z" fill="#000000" fill-rule="evenodd" fill-opacity="1" /><path clip-path="url(#clip2400)" d="M 0 0 M140.705 767.885 L145.589 767.885 L145.589 773.765 L140.705 773.765 L140.705 767.885 Z" fill="#000000" fill-rule="evenodd" fill-opacity="1" /><path clip-path="url(#clip2400)" d="M 0 0 M160.658 742.284 Q157.047 742.284 155.219 745.848 Q153.413 749.39 153.413 756.52 Q153.413 763.626 155.219 767.191 Q157.047 770.732 160.658 770.732 Q164.293 770.732 166.098 767.191 Q167.927 763.626 167.927 756.52 Q167.927 749.39 166.098 745.848 Q164.293 742.284 160.658 742.284 M160.658 738.58 Q166.468 738.58 169.524 743.186 Q172.603 747.77 172.603 756.52 Q172.603 765.246 169.524 769.853 Q166.468 774.436 160.658 774.436 Q154.848 774.436 151.769 769.853 Q148.714 765.246 148.714 756.52 Q148.714 747.77 151.769 743.186 Q154.848 738.58 160.658 738.58 Z" fill="#000000" fill-rule="evenodd" fill-opacity="1" /><path clip-path="url(#clip2400)" d="M 0 0 M124.686 516.528 Q121.075 516.528 119.247 520.092 Q117.441 523.634 117.441 530.764 Q117.441 537.87 119.247 541.435 Q121.075 544.977 124.686 544.977 Q128.321 544.977 130.126 541.435 Q131.955 537.87 131.955 530.764 Q131.955 523.634 130.126 520.092 Q128.321 516.528 124.686 516.528 M124.686 512.824 Q130.496 512.824 133.552 517.43 Q136.631 522.014 136.631 530.764 Q136.631 539.49 133.552 544.097 Q130.496 548.68 124.686 548.68 Q118.876 548.68 115.797 544.097 Q112.742 539.49 112.742 530.764 Q112.742 522.014 115.797 517.43 Q118.876 512.824 124.686 512.824 Z" fill="#000000" fill-rule="evenodd" fill-opacity="1" /><path clip-path="url(#clip2400)" d="M 0 0 M141.7 542.129 L146.584 542.129 L146.584 548.009 L141.7 548.009 L141.7 542.129 Z" fill="#000000" fill-rule="evenodd" fill-opacity="1" /><path clip-path="url(#clip2400)" d="M 0 0 M151.7 513.449 L170.056 513.449 L170.056 517.384 L155.982 517.384 L155.982 525.856 Q157.001 525.509 158.019 525.347 Q159.038 525.162 160.056 525.162 Q165.843 525.162 169.223 528.333 Q172.603 531.504 172.603 536.921 Q172.603 542.5 169.131 545.602 Q165.658 548.68 159.339 548.68 Q157.163 548.68 154.894 548.31 Q152.649 547.939 150.242 547.199 L150.242 542.5 Q152.325 543.634 154.547 544.19 Q156.769 544.745 159.246 544.745 Q163.251 544.745 165.589 542.639 Q167.927 540.532 167.927 536.921 Q167.927 533.31 165.589 531.203 Q163.251 529.097 159.246 529.097 Q157.371 529.097 155.496 529.514 Q153.644 529.93 151.7 530.81 L151.7 513.449 Z" fill="#000000" fill-rule="evenodd" fill-opacity="1" /><path clip-path="url(#clip2400)" d="M 0 0 M115.728 318.318 L123.367 318.318 L123.367 291.952 L115.057 293.619 L115.057 289.36 L123.321 287.693 L127.996 287.693 L127.996 318.318 L135.635 318.318 L135.635 322.253 L115.728 322.253 L115.728 318.318 Z" fill="#000000" fill-rule="evenodd" fill-opacity="1" /><path clip-path="url(#clip2400)" d="M 0 0 M140.705 316.373 L145.589 316.373 L145.589 322.253 L140.705 322.253 L140.705 316.373 Z" fill="#000000" fill-rule="evenodd" fill-opacity="1" /><path clip-path="url(#clip2400)" d="M 0 0 M160.658 290.772 Q157.047 290.772 155.219 294.336 Q153.413 297.878 153.413 305.008 Q153.413 312.114 155.219 315.679 Q157.047 319.221 160.658 319.221 Q164.293 319.221 166.098 315.679 Q167.927 312.114 167.927 305.008 Q167.927 297.878 166.098 294.336 Q164.293 290.772 160.658 290.772 M160.658 287.068 Q166.468 287.068 169.524 291.674 Q172.603 296.258 172.603 305.008 Q172.603 313.735 169.524 318.341 Q166.468 322.924 160.658 322.924 Q154.848 322.924 151.769 318.341 Q148.714 313.735 148.714 305.008 Q148.714 296.258 151.769 291.674 Q154.848 287.068 160.658 287.068 Z" fill="#000000" fill-rule="evenodd" fill-opacity="1" /><path clip-path="url(#clip2400)" d="M 0 0 M116.723 92.5619 L124.362 92.5619 L124.362 66.1963 L116.052 67.863 L116.052 63.6038 L124.316 61.9371 L128.992 61.9371 L128.992 92.5619 L136.631 92.5619 L136.631 96.4971 L116.723 96.4971 L116.723 92.5619 Z" fill="#000000" fill-rule="evenodd" fill-opacity="1" /><path clip-path="url(#clip2400)" d="M 0 0 M141.7 90.6175 L146.584 90.6175 L146.584 96.4971 L141.7 96.4971 L141.7 90.6175 Z" fill="#000000" fill-rule="evenodd" fill-opacity="1" /><path clip-path="url(#clip2400)" d="M 0 0 M151.7 61.9371 L170.056 61.9371 L170.056 65.8723 L155.982 65.8723 L155.982 74.3444 Q157.001 73.9972 158.019 73.8352 Q159.038 73.65 160.056 73.65 Q165.843 73.65 169.223 76.8213 Q172.603 79.9926 172.603 85.4092 Q172.603 90.9879 169.131 94.0897 Q165.658 97.1684 159.339 97.1684 Q157.163 97.1684 154.894 96.798 Q152.649 96.4277 150.242 95.6869 L150.242 90.9879 Q152.325 92.1221 154.547 92.6777 Q156.769 93.2332 159.246 93.2332 Q163.251 93.2332 165.589 91.1268 Q167.927 89.0203 167.927 85.4092 Q167.927 81.7981 165.589 79.6916 Q163.251 77.5852 159.246 77.5852 Q157.371 77.5852 155.496 78.0018 Q153.644 78.4185 151.7 79.2981 L151.7 61.9371 Z" fill="#000000" fill-rule="evenodd" fill-opacity="1" /><polyline clip-path="url(#clip2400)" style="stroke:#000000; stroke-width:4; stroke-opacity:1; fill:none" points="
  220.603,47.2441 1559.96,47.2441 
  "/>
<polyline clip-path="url(#clip2400)" style="stroke:#000000; stroke-width:4; stroke-opacity:1; fill:none" points="
  1559.96,1465.72 1559.96,47.2441 
  "/>
<path clip-path="url(#clip2400)" d="M 0 0 M898.749 1563.15 Q898.749 1564.05 898.331 1564.28 Q897.912 1564.47 896.753 1564.47 L890.569 1564.47 L885.674 1583.92 Q885.287 1585.63 885.287 1587.08 Q885.287 1588.69 885.77 1589.4 Q886.286 1590.11 887.348 1590.11 Q889.442 1590.11 891.696 1588.21 Q893.983 1586.31 895.915 1581.67 Q896.173 1581.06 896.302 1580.93 Q896.463 1580.77 896.881 1580.77 Q897.687 1580.77 897.687 1581.41 Q897.687 1581.64 897.236 1582.67 Q896.817 1583.7 895.883 1585.21 Q894.981 1586.73 893.79 1588.14 Q892.63 1589.56 890.859 1590.59 Q889.088 1591.59 887.187 1591.59 Q884.514 1591.59 882.807 1589.88 Q881.133 1588.17 881.133 1585.5 Q881.133 1584.63 881.809 1581.86 Q882.485 1579.06 886.157 1564.47 L880.328 1564.47 Q879.522 1564.47 879.2 1564.44 Q878.911 1564.41 878.685 1564.25 Q878.492 1564.05 878.492 1563.67 Q878.492 1563.05 878.75 1562.8 Q879.007 1562.51 879.329 1562.47 Q879.683 1562.41 880.489 1562.41 L886.672 1562.41 L889.249 1551.94 Q889.506 1550.91 890.15 1550.33 Q890.827 1549.72 891.213 1549.66 Q891.6 1549.56 891.89 1549.56 Q892.759 1549.56 893.274 1550.04 Q893.79 1550.49 893.79 1551.33 Q893.79 1551.78 891.084 1562.41 L896.881 1562.41 Q897.622 1562.41 897.912 1562.44 Q898.234 1562.47 898.492 1562.64 Q898.749 1562.8 898.749 1563.15 Z" fill="#000000" fill-rule="evenodd" fill-opacity="1" /><path clip-path="url(#clip2400)" d="M 0 0 M54.6832 778.366 Q58.8378 779.203 61.221 780.331 Q64.8603 782.166 64.8603 785.226 Q64.8603 787.352 63.6686 788.962 Q62.4448 790.54 60.4159 791.087 Q61.221 791.699 61.7685 792.247 Q62.316 792.762 63.1534 793.761 Q63.9585 794.759 64.4094 796.112 Q64.8603 797.432 64.8603 798.946 Q64.8603 800.105 64.6348 801.168 Q64.4416 802.231 63.8941 803.358 Q63.3144 804.453 62.4448 805.258 Q61.5753 806.031 60.1582 806.546 Q58.7411 807.062 56.9376 807.062 Q54.6832 807.062 51.6237 806.192 Q48.5641 805.29 43.0891 803.229 Q40.1906 802.102 38.5803 802.102 Q37.8395 802.102 37.3565 802.263 Q36.8734 802.424 36.7123 802.746 Q36.5191 803.036 36.4869 803.229 Q36.4225 803.422 36.4225 803.744 Q36.4225 805.741 38.4515 807.48 Q40.4804 809.219 44.6028 810.411 Q45.4079 810.669 45.6012 810.83 Q45.7944 810.991 45.7944 811.474 Q45.7622 812.279 45.1181 812.279 Q44.8604 812.279 43.862 811.989 Q42.8315 811.699 41.3178 811.023 Q39.7719 810.314 38.387 809.348 Q36.97 808.382 35.9716 806.868 Q34.9732 805.322 34.9732 803.551 Q34.9732 801.136 36.5513 799.654 Q38.0972 798.141 40.3838 798.141 Q41.8009 798.141 44.5384 799.268 Q54.0391 802.843 58.0004 802.843 Q63.3788 802.843 63.3788 798.752 Q63.3788 797.4 62.8313 796.144 Q62.2838 794.856 61.5109 794.018 Q60.7379 793.181 59.9006 792.537 Q59.0632 791.86 58.5157 791.571 Q57.9682 791.248 57.8394 791.216 L38.0006 786.289 Q37.2276 786.096 36.7123 785.741 Q36.1648 785.355 35.9716 784.904 Q35.7784 784.453 35.7462 784.195 Q35.6818 783.938 35.6818 783.712 Q35.6818 782.907 36.1648 782.36 Q36.6479 781.78 37.4853 781.78 Q37.6463 781.78 38.4192 781.973 Q39.16 782.134 40.255 782.392 Q41.3178 782.649 41.8975 782.778 Q45.9554 783.809 46.3741 783.906 L53.4916 785.741 Q53.9103 785.838 55.2629 786.16 Q56.6156 786.45 57.3241 786.611 Q58.0004 786.772 58.9344 786.933 Q59.8361 787.062 60.3514 787.062 Q61.9617 787.062 62.6703 786.579 Q63.3788 786.096 63.3788 785.033 Q63.3788 784.034 62.7025 783.261 Q61.9939 782.456 60.6413 781.844 Q59.2564 781.232 58.1292 780.878 Q57.002 780.524 55.2307 780.073 Q54.4578 779.912 54.2645 779.783 Q54.0391 779.622 54.0391 779.171 Q54.0391 778.366 54.6832 778.366 Z" fill="#000000" fill-rule="evenodd" fill-opacity="1" /><path clip-path="url(#clip2400)" d="M 0 0 M47.6301 774.923 Q36.4869 774.923 27.5015 770.768 Q23.7334 768.997 20.5772 766.517 Q17.421 764.037 16.0362 762.395 Q14.6513 760.752 14.6513 760.301 Q14.6513 759.657 15.2954 759.625 Q15.6175 759.625 16.4226 760.495 Q27.2438 771.122 47.6301 771.09 Q68.0808 771.09 78.4833 760.752 Q79.6105 759.625 79.9648 759.625 Q80.6089 759.625 80.6089 760.301 Q80.6089 760.752 79.2885 762.33 Q77.968 763.908 74.9407 766.356 Q71.9133 768.804 68.2097 770.575 Q59.2242 774.923 47.6301 774.923 Z" fill="#000000" fill-rule="evenodd" fill-opacity="1" /><path clip-path="url(#clip2400)" d="M 0 0 M36.4225 729.336 Q37.3242 729.336 37.5497 729.755 Q37.7429 730.173 37.7429 731.333 L37.7429 737.516 L57.1953 742.411 Q58.9022 742.798 60.3514 742.798 Q61.9617 742.798 62.6703 742.315 Q63.3788 741.8 63.3788 740.737 Q63.3788 738.643 61.4786 736.389 Q59.5785 734.102 54.9409 732.17 Q54.3289 731.912 54.2001 731.784 Q54.0391 731.622 54.0391 731.204 Q54.0391 730.399 54.6832 730.399 Q54.9086 730.399 55.9392 730.85 Q56.9698 731.268 58.4835 732.202 Q59.9972 733.104 61.4142 734.296 Q62.8313 735.455 63.8619 737.226 Q64.8603 738.998 64.8603 740.898 Q64.8603 743.571 63.1534 745.278 Q61.4464 746.952 58.7734 746.952 Q57.9038 746.952 55.1341 746.276 Q52.3322 745.6 37.7429 741.928 L37.7429 747.758 Q37.7429 748.563 37.7107 748.885 Q37.6785 749.175 37.5175 749.4 Q37.3242 749.593 36.9378 749.593 Q36.3259 749.593 36.0682 749.336 Q35.7784 749.078 35.7462 748.756 Q35.6818 748.402 35.6818 747.597 L35.6818 741.413 L25.2148 738.837 Q24.1843 738.579 23.6046 737.935 Q22.9926 737.258 22.9282 736.872 Q22.8316 736.486 22.8316 736.196 Q22.8316 735.326 23.3147 734.811 Q23.7656 734.296 24.6029 734.296 Q25.0538 734.296 35.6818 737.001 L35.6818 731.204 Q35.6818 730.463 35.714 730.173 Q35.7462 729.851 35.9072 729.594 Q36.0682 729.336 36.4225 729.336 Z" fill="#000000" fill-rule="evenodd" fill-opacity="1" /><path clip-path="url(#clip2400)" d="M 0 0 M79.9648 726.018 Q79.6428 726.018 78.8376 725.181 Q68.0164 714.553 47.6301 714.553 Q27.1794 714.553 16.8413 724.762 Q15.6497 726.018 15.2954 726.018 Q14.6513 726.018 14.6513 725.374 Q14.6513 724.923 15.9718 723.345 Q17.2922 721.735 20.3196 719.32 Q23.3469 716.872 27.0506 715.068 Q36.036 710.721 47.6301 710.721 Q58.7734 710.721 67.7588 714.875 Q71.5269 716.647 74.683 719.126 Q77.8392 721.606 79.2241 723.249 Q80.6089 724.891 80.6089 725.374 Q80.6089 726.018 79.9648 726.018 Z" fill="#000000" fill-rule="evenodd" fill-opacity="1" /><polyline clip-path="url(#clip2402)" style="stroke:#009af9; stroke-width:4; stroke-opacity:1; fill:none" points="
  220.603,756.485 222.735,749.393 224.868,742.307 227.001,735.236 229.134,728.185 231.266,721.162 233.399,714.174 235.532,707.227 237.665,700.329 239.797,693.485 
  241.93,686.703 244.063,679.989 246.195,673.35 248.328,666.792 250.461,660.322 252.594,653.945 254.726,647.668 256.859,641.496 258.992,635.436 261.125,629.494 
  263.257,623.675 265.39,617.984 267.523,612.426 269.655,607.008 271.788,601.734 273.921,596.609 276.054,591.637 278.186,586.823 280.319,582.172 282.452,577.688 
  284.585,573.375 286.717,569.237 288.85,565.277 290.983,561.499 293.115,557.906 295.248,554.503 297.381,551.29 299.514,548.273 301.646,545.452 303.779,542.831 
  305.912,540.412 308.045,538.197 310.177,536.188 312.31,534.387 314.443,532.795 316.575,531.413 318.708,530.243 320.841,529.286 322.974,528.543 325.106,528.014 
  327.239,527.7 329.372,527.601 331.505,527.717 333.637,528.047 335.77,528.593 337.903,529.353 340.035,530.326 342.168,531.512 344.301,532.91 346.434,534.518 
  348.566,536.336 350.699,538.361 352.832,540.592 354.965,543.026 357.097,545.663 359.23,548.499 361.363,551.531 363.495,554.758 365.628,558.177 367.761,561.784 
  369.894,565.576 372.026,569.55 374.159,573.702 376.292,578.028 378.425,582.525 380.557,587.189 382.69,592.015 384.823,596.999 386.956,602.136 389.088,607.421 
  391.221,612.85 393.354,618.418 395.486,624.119 397.619,629.948 399.752,635.9 401.885,641.969 404.017,648.148 406.15,654.433 408.283,660.818 410.416,667.295 
  412.548,673.86 414.681,680.505 416.814,687.224 418.946,694.011 421.079,700.859 423.212,707.762 425.345,714.712 427.477,721.704 429.61,728.729 431.743,735.781 
  433.876,742.854 436.008,749.941 438.141,757.033 440.274,764.125 442.406,771.21 444.539,778.28 446.672,785.329 448.805,792.349 450.937,799.335 453.07,806.278 
  455.203,813.173 457.336,820.012 459.468,826.789 461.601,833.497 463.734,840.13 465.866,846.682 467.999,853.145 470.132,859.515 472.265,865.784 474.397,871.947 
  476.53,877.998 478.663,883.931 480.796,889.741 482.928,895.422 485.061,900.969 487.194,906.376 489.326,911.639 491.459,916.753 493.592,921.712 495.725,926.514 
  497.857,931.152 499.99,935.623 502.123,939.923 504.256,944.048 506.388,947.994 508.521,951.757 510.654,955.335 512.786,958.724 514.919,961.922 517.052,964.924 
  519.185,967.73 521.317,970.335 523.45,972.738 525.583,974.938 527.716,976.931 529.848,978.716 531.981,980.292 534.114,981.657 536.246,982.81 538.379,983.751 
  540.512,984.478 542.645,984.99 544.777,985.288 546.91,985.37 549.043,985.238 551.176,984.89 553.308,984.328 555.441,983.552 557.574,982.562 559.706,981.36 
  561.839,979.946 563.972,978.321 566.105,976.487 568.237,974.446 570.37,972.2 572.503,969.749 574.636,967.097 576.768,964.246 578.901,961.198 581.034,957.956 
  583.166,954.523 585.299,950.902 587.432,947.096 589.565,943.108 591.697,938.942 593.83,934.602 595.963,930.092 598.096,925.415 600.228,920.577 602.361,915.581 
  604.494,910.433 606.626,905.136 608.759,899.696 610.892,894.117 613.025,888.406 615.157,882.567 617.29,876.606 619.423,870.529 621.556,864.341 623.688,858.048 
  625.821,851.656 627.954,845.171 630.086,838.6 632.219,831.949 634.352,825.224 636.485,818.432 638.617,811.579 640.75,804.673 642.883,797.719 645.016,790.725 
  647.148,783.697 649.281,776.643 651.414,769.568 653.547,762.481 655.679,755.388 657.812,748.297 659.945,741.213 662.077,734.144 664.21,727.097 666.343,720.079 
  668.476,713.096 670.608,706.156 672.741,699.266 674.874,692.431 677.007,685.659 679.139,678.956 681.272,672.329 683.405,665.784 685.537,659.328 687.67,652.966 
  689.803,646.704 691.936,640.55 694.068,634.507 696.201,628.584 698.334,622.784 700.467,617.113 702.599,611.577 704.732,606.18 706.865,600.929 708.997,595.826 
  711.13,590.879 713.263,586.09 715.396,581.464 717.528,577.006 719.661,572.72 721.794,568.609 723.927,564.677 726.059,560.927 728.192,557.363 730.325,553.989 
  732.457,550.807 734.59,547.819 736.723,545.029 738.856,542.439 740.988,540.052 743.121,537.868 745.254,535.891 747.387,534.122 749.519,532.562 751.652,531.213 
  753.785,530.076 755.917,529.152 758.05,528.442 760.183,527.946 762.316,527.665 764.448,527.599 766.581,527.748 768.714,528.112 770.847,528.691 772.979,529.484 
  775.112,530.49 777.245,531.709 779.377,533.14 781.51,534.78 783.643,536.63 785.776,538.687 787.908,540.95 790.041,543.416 792.174,546.083 794.307,548.95 
  796.439,552.013 798.572,555.269 800.705,558.717 802.837,562.353 804.97,566.174 807.103,570.175 809.236,574.355 811.368,578.708 813.501,583.231 815.634,587.92 
  817.767,592.771 819.899,597.779 822.032,602.939 824.165,608.247 826.297,613.698 828.43,619.287 830.563,625.008 832.696,630.857 834.828,636.827 836.961,642.914 
  839.094,649.11 841.227,655.411 843.359,661.81 845.492,668.302 847.625,674.879 849.757,681.537 851.89,688.267 854.023,695.064 856.156,701.921 858.288,708.832 
  860.421,715.789 862.554,722.786 864.687,729.816 866.819,736.872 868.952,743.948 871.085,751.036 873.217,758.129 875.35,765.221 877.483,772.304 879.616,779.371 
  881.748,786.416 883.881,793.432 886.014,800.411 888.147,807.348 890.279,814.234 892.412,821.065 894.545,827.832 896.677,834.529 898.81,841.15 900.943,847.688 
  903.076,854.138 905.208,860.492 907.341,866.746 909.474,872.892 911.607,878.925 913.739,884.84 915.872,890.63 918.005,896.291 920.138,901.817 922.27,907.202 
  924.403,912.442 926.536,917.533 928.668,922.468 930.801,927.245 932.934,931.857 935.067,936.302 937.199,940.576 939.332,944.673 941.465,948.591 943.598,952.327 
  945.73,955.876 947.863,959.236 949.996,962.403 952.128,965.375 954.261,968.15 956.394,970.724 958.527,973.096 960.659,975.264 962.792,977.225 964.925,978.978 
  967.058,980.522 969.19,981.854 971.323,982.975 973.456,983.882 975.588,984.576 977.721,985.055 979.854,985.32 981.987,985.369 984.119,985.203 986.252,984.823 
  988.385,984.228 990.518,983.418 992.65,982.396 994.783,981.16 996.916,979.713 999.048,978.056 1001.18,976.191 1003.31,974.118 1005.45,971.839 1007.58,969.358 
  1009.71,966.675 1011.84,963.793 1013.98,960.715 1016.11,957.443 1018.24,953.981 1020.38,950.33 1022.51,946.496 1024.64,942.48 1026.77,938.287 1028.91,933.921 
  1031.04,929.384 1033.17,924.683 1035.3,919.82 1037.44,914.8 1039.57,909.628 1041.7,904.308 1043.84,898.846 1045.97,893.247 1048.1,887.516 1050.23,881.657 
  1052.37,875.678 1054.5,869.583 1056.63,863.378 1058.76,857.069 1060.9,850.662 1063.03,844.164 1065.16,837.58 1067.3,830.917 1069.43,824.181 1071.56,817.379 
  1073.69,810.518 1075.83,803.603 1077.96,796.642 1080.09,789.643 1082.22,782.61 1084.36,775.552 1086.49,768.475 1088.62,761.387 1090.76,754.293 1092.89,747.202 
  1095.02,740.12 1097.15,733.054 1099.29,726.011 1101.42,718.997 1103.55,712.021 1105.68,705.088 1107.82,698.205 1109.95,691.38 1112.08,684.618 1114.22,677.926 
  1116.35,671.311 1118.48,664.779 1120.61,658.337 1122.75,651.99 1124.88,645.744 1127.01,639.607 1129.14,633.582 1131.28,627.677 1133.41,621.896 1135.54,616.246 
  1137.68,610.731 1139.81,605.356 1141.94,600.127 1144.07,595.049 1146.21,590.125 1148.34,585.361 1150.47,580.761 1152.6,576.329 1154.74,572.069 1156.87,567.985 
  1159,564.081 1161.14,560.36 1163.27,556.825 1165.4,553.48 1167.53,550.328 1169.67,547.371 1171.8,544.611 1173.93,542.053 1176.06,539.696 1178.2,537.545 
  1180.33,535.599 1182.46,533.862 1184.6,532.335 1186.73,531.019 1188.86,529.915 1190.99,529.024 1193.13,528.346 1195.26,527.884 1197.39,527.636 1199.52,527.603 
  1201.66,527.785 1203.79,528.182 1205.92,528.794 1208.06,529.62 1210.19,530.659 1212.32,531.911 1214.45,533.374 1216.59,535.047 1218.72,536.929 1220.85,539.018 
  1222.98,541.312 1225.12,543.809 1227.25,546.508 1229.38,549.405 1231.52,552.498 1233.65,555.785 1235.78,559.262 1237.91,562.926 1240.05,566.775 1242.18,570.805 
  1244.31,575.011 1246.44,579.391 1248.58,583.94 1250.71,588.655 1252.84,593.53 1254.98,598.562 1257.11,603.745 1259.24,609.076 1261.37,614.549 1263.51,620.158 
  1265.64,625.9 1267.77,631.768 1269.9,637.756 1272.04,643.86 1274.17,650.074 1276.3,656.39 1278.44,662.804 1280.57,669.31 1282.7,675.9 1284.83,682.569 
  1286.97,689.31 1289.1,696.117 1291.23,702.983 1293.36,709.901 1295.5,716.865 1297.63,723.868 1299.76,730.903 1301.9,737.963 1304.03,745.041 1306.16,752.13 
  1308.29,759.224 1310.43,766.315 1312.56,773.396 1314.69,780.461 1316.82,787.502 1318.96,794.512 1321.09,801.486 1323.22,808.415 1325.36,815.294 1327.49,822.115 
  1329.62,828.871 1331.75,835.558 1333.89,842.166 1336.02,848.692 1338.15,855.127 1340.28,861.467 1342.42,867.704 1344.55,873.833 1346.68,879.849 1348.82,885.745 
  1350.95,891.515 1353.08,897.156 1355.21,902.66 1357.35,908.024 1359.48,913.241 1361.61,918.308 1363.74,923.22 1365.88,927.971 1368.01,932.558 1370.14,936.977 
  1372.28,941.224 1374.41,945.294 1376.54,949.184 1378.67,952.891 1380.81,956.411 1382.94,959.742 1385.07,962.879 1387.2,965.821 1389.34,968.565 1391.47,971.109 
  1393.6,973.449 1395.74,975.585 1397.87,977.514 1400,979.235 1402.13,980.746 1404.27,982.046 1406.4,983.134 1408.53,984.009 1410.66,984.669 1412.8,985.115 
  1414.93,985.347 1417.06,985.363 1419.2,985.164 1421.33,984.75 1423.46,984.122 1425.59,983.28 1427.73,982.224 1429.86,980.956 1431.99,979.477 1434.12,977.787 
  1436.26,975.889 1438.39,973.785 1440.52,971.475 1442.66,968.962 1444.79,966.248 1446.92,963.336 1449.05,960.227 1451.19,956.926 1453.32,953.434 1455.45,949.755 
  1457.58,945.892 1459.72,941.849 1461.85,937.629 1463.98,933.236 1466.12,928.674 1468.25,923.947 1470.38,919.059 1472.51,914.015 1474.65,908.82 1476.78,903.478 
  1478.91,897.995 1481.04,892.375 1483.18,886.623 1485.31,880.746 1487.44,874.748 1489.58,868.635 1491.71,862.414 1493.84,856.089 1495.97,849.668 1498.11,843.156 
  1500.24,836.559 1502.37,829.884 1504.5,823.138 1506.64,816.326 1508.77,809.455 1510.9,802.533 1513.04,795.566 1515.17,788.56 1517.3,781.523 1519.43,774.462 
  1521.57,767.382 1523.7,760.293 1525.83,753.199 1527.96,746.108 1530.1,739.028 1532.23,731.965 1534.36,724.926 1536.5,717.918 1538.63,710.947 1540.76,704.022 
  1542.89,697.147 1545.03,690.331 1547.16,683.579 1549.29,676.899 1551.42,670.296 1553.56,663.777 1555.69,657.349 1557.82,651.017 1559.96,644.788 
  "/>
<polyline clip-path="url(#clip2402)" style="stroke:#e26f46; stroke-width:4; stroke-opacity:1; fill:none" points="
  220.603,47.2517 222.735,47.5996 224.868,48.643 227.001,50.3805 229.134,52.8102 231.266,55.929 233.399,59.7331 235.532,64.2178 237.665,69.3778 239.797,75.2068 
  241.93,81.6978 244.063,88.8431 246.195,96.634 248.328,105.061 250.461,114.116 252.594,123.786 254.726,134.061 256.859,144.929 258.992,156.378 261.125,168.395 
  263.257,180.966 265.39,194.077 267.523,207.715 269.655,221.864 271.788,236.509 273.921,251.634 276.054,267.224 278.186,283.263 280.319,299.734 282.452,316.619 
  284.585,333.903 286.717,351.568 288.85,369.597 290.983,387.971 293.115,406.675 295.248,425.688 297.381,444.995 299.514,464.576 301.646,484.413 303.779,504.489 
  305.912,524.785 308.045,545.282 310.177,565.963 312.31,586.81 314.443,607.803 316.575,628.924 318.708,650.156 320.841,671.479 322.974,692.874 325.106,714.325 
  327.239,735.812 329.372,757.316 331.505,778.82 333.637,800.305 335.77,821.752 337.903,843.143 340.035,864.459 342.168,885.683 344.301,906.795 346.434,927.777 
  348.566,948.612 350.699,969.279 352.832,989.762 354.965,1010.04 357.097,1030.1 359.23,1049.92 361.363,1069.48 363.495,1088.76 365.628,1107.75 367.761,1126.43 
  369.894,1144.78 372.026,1162.78 374.159,1180.42 376.292,1197.67 378.425,1214.53 380.557,1230.96 382.69,1246.97 384.823,1262.52 386.956,1277.61 389.088,1292.22 
  391.221,1306.33 393.354,1319.93 395.486,1333 397.619,1345.53 399.752,1357.5 401.885,1368.91 404.017,1379.73 406.15,1389.96 408.283,1399.58 410.416,1408.59 
  412.548,1416.97 414.681,1424.71 416.814,1431.8 418.946,1438.24 421.079,1444.02 423.212,1449.13 425.345,1453.56 427.477,1457.31 429.61,1460.38 431.743,1462.76 
  433.876,1464.44 436.008,1465.43 438.141,1465.72 440.274,1465.32 442.406,1464.23 444.539,1462.43 446.672,1459.95 448.805,1456.78 450.937,1452.92 453.07,1448.38 
  455.203,1443.17 457.336,1437.29 459.468,1430.75 461.601,1423.55 463.734,1415.71 465.866,1407.24 467.999,1398.14 470.132,1388.42 472.265,1378.1 474.397,1367.18 
  476.53,1355.69 478.663,1343.63 480.796,1331.02 482.928,1317.86 485.061,1304.19 487.194,1290 489.326,1275.31 491.459,1260.15 493.592,1244.53 495.725,1228.45 
  497.857,1211.95 499.99,1195.03 502.123,1177.72 504.256,1160.03 506.388,1141.97 508.521,1123.57 510.654,1104.84 512.786,1085.8 514.919,1066.47 517.052,1046.87 
  519.185,1027.02 521.317,1006.92 523.45,986.61 525.583,966.098 527.716,945.403 529.848,924.544 531.981,903.54 534.114,882.41 536.246,861.17 538.379,839.841 
  540.512,818.44 542.645,796.986 544.777,775.497 546.91,753.991 549.043,732.488 551.176,711.006 553.308,689.562 555.441,668.176 557.574,646.866 559.706,625.65 
  561.839,604.547 563.972,583.575 566.105,562.753 568.237,542.098 570.37,521.63 572.503,501.367 574.636,481.327 576.768,461.527 578.901,441.987 581.034,422.725 
  583.166,403.758 585.299,385.104 587.432,366.781 589.565,348.807 591.697,331.2 593.83,313.976 595.963,297.153 598.096,280.747 600.228,264.777 602.361,249.257 
  604.494,234.204 606.626,219.635 608.759,205.563 610.892,192.006 613.025,178.977 615.157,166.49 617.29,154.56 619.423,143.2 621.556,132.422 623.688,122.239 
  625.821,112.663 627.954,103.705 630.086,95.375 632.219,87.683 634.352,80.638 636.485,74.2486 638.617,68.5223 640.75,63.466 642.883,59.0858 645.016,55.3872 
  647.148,52.3744 649.281,50.0513 651.414,48.4207 653.547,47.4846 655.679,47.2441 657.812,47.6995 659.945,48.8503 662.077,50.6951 664.21,53.2315 666.343,56.4566 
  668.476,60.3663 670.608,64.9559 672.741,70.2198 674.874,76.1517 677.007,82.7445 679.139,89.9903 681.272,97.8804 683.405,106.406 685.537,115.556 687.67,125.32 
  689.803,135.688 691.936,146.647 694.068,158.185 696.201,170.288 698.334,182.944 700.467,196.138 702.599,209.856 704.732,224.083 706.865,238.804 708.997,254.002 
  711.13,269.663 713.263,285.77 715.396,302.306 717.528,319.255 719.661,336.599 721.794,354.322 723.927,372.406 726.059,390.833 728.192,409.585 730.325,428.646 
  732.457,447.996 734.59,467.618 736.723,487.494 738.856,507.606 740.988,527.934 743.121,548.462 745.254,569.17 747.387,590.041 749.519,611.056 751.652,632.196 
  753.785,653.443 755.917,674.779 758.05,696.185 760.183,717.642 762.316,739.134 764.448,760.64 766.581,782.142 768.714,803.623 770.847,825.063 772.979,846.444 
  775.112,867.747 777.245,888.955 779.377,910.049 781.51,931.01 783.643,951.821 785.776,972.461 787.908,992.914 790.041,1013.16 792.174,1033.18 794.307,1052.96 
  796.439,1072.48 798.572,1091.72 800.705,1110.67 802.837,1129.3 804.97,1147.59 807.103,1165.54 809.236,1183.12 811.368,1200.31 813.501,1217.1 815.634,1233.48 
  817.767,1249.41 819.899,1264.9 822.032,1279.91 824.165,1294.45 826.297,1308.48 828.43,1322 830.563,1334.98 832.696,1347.43 834.828,1359.31 836.961,1370.63 
  839.094,1381.36 841.227,1391.5 843.359,1401.03 845.492,1409.94 847.625,1418.22 849.757,1425.86 851.89,1432.86 854.023,1439.19 856.156,1444.87 858.288,1449.87 
  860.421,1454.2 862.554,1457.85 864.687,1460.81 866.819,1463.08 868.952,1464.65 871.085,1465.54 873.217,1465.72 875.35,1465.21 877.483,1464.01 879.616,1462.11 
  881.748,1459.52 883.881,1456.24 886.014,1452.28 888.147,1447.64 890.279,1442.32 892.412,1436.34 894.545,1429.7 896.677,1422.4 898.81,1414.46 900.943,1405.89 
  903.076,1396.69 905.208,1386.88 907.341,1376.46 909.474,1365.46 911.607,1353.88 913.739,1341.73 915.872,1329.03 918.005,1315.8 920.138,1302.04 922.27,1287.77 
  924.403,1273.01 926.536,1257.78 928.668,1242.08 930.801,1225.94 932.934,1209.37 935.067,1192.39 937.199,1175.02 939.332,1157.27 941.465,1139.16 943.598,1120.7 
  945.73,1101.93 947.863,1082.84 949.996,1063.47 952.128,1043.83 954.261,1023.93 956.394,1003.8 958.527,983.46 960.659,962.917 962.792,942.195 964.925,921.313 
  967.058,900.288 969.19,879.139 971.323,857.884 973.456,836.542 975.588,815.131 977.721,793.669 979.854,772.176 981.987,750.67 984.119,729.168 986.252,707.69 
  988.385,686.253 990.518,664.877 992.65,643.58 994.783,622.38 996.916,601.296 999.048,580.345 1001.18,559.547 1003.31,538.92 1005.45,518.482 1007.58,498.251 
  1009.71,478.247 1011.84,458.486 1013.98,438.987 1016.11,419.768 1018.24,400.848 1020.38,382.244 1022.51,363.973 1024.64,346.055 1026.77,328.505 1028.91,311.341 
  1031.04,294.581 1033.17,278.242 1035.3,262.339 1037.44,246.89 1039.57,231.911 1041.7,217.417 1043.84,203.424 1045.97,189.946 1048.1,177 1050.23,164.598 
  1052.37,152.755 1054.5,141.483 1056.63,130.796 1058.76,120.707 1060.9,111.225 1063.03,102.363 1065.16,94.1306 1067.3,86.5377 1069.43,79.5933 1071.56,73.3056 
  1073.69,67.6822 1075.83,62.7298 1077.96,58.4545 1080.09,54.8613 1082.22,51.9548 1084.36,49.7384 1086.49,48.2149 1088.62,47.3861 1090.76,47.2531 1092.89,47.8159 
  1095.02,49.074 1097.15,51.0258 1099.29,53.6688 1101.42,57 1103.55,61.0151 1105.68,65.7093 1107.82,71.0769 1109.95,77.1115 1112.08,83.8058 1114.22,91.1518 
  1116.35,99.1408 1118.48,107.763 1120.61,117.009 1122.75,126.868 1124.88,137.328 1127.01,148.378 1129.14,160.004 1131.28,172.194 1133.41,184.934 1135.54,198.21 
  1137.68,212.008 1139.81,226.312 1141.94,241.108 1144.07,256.379 1146.21,272.111 1148.34,288.285 1150.47,304.886 1152.6,321.898 1154.74,339.302 1156.87,357.082 
  1159,375.22 1161.14,393.699 1163.27,412.501 1165.4,431.608 1167.53,451.002 1169.67,470.664 1171.8,490.578 1173.93,510.725 1176.06,531.086 1178.2,551.643 
  1180.33,572.378 1182.46,593.273 1184.6,614.308 1186.73,635.466 1188.86,656.729 1190.99,678.077 1193.13,699.493 1195.26,720.958 1197.39,742.453 1199.52,763.96 
  1201.66,785.461 1203.79,806.936 1205.92,828.369 1208.06,849.74 1210.19,871.03 1212.32,892.222 1214.45,913.297 1216.59,934.237 1218.72,955.023 1220.85,975.636 
  1222.98,996.059 1225.12,1016.27 1227.25,1036.26 1229.38,1056 1231.52,1075.48 1233.65,1094.68 1235.78,1113.57 1237.91,1132.15 1240.05,1150.4 1242.18,1168.29 
  1244.31,1185.81 1246.44,1202.94 1248.58,1219.67 1250.71,1235.98 1252.84,1251.84 1254.98,1267.26 1257.11,1282.2 1259.24,1296.66 1261.37,1310.61 1263.51,1324.05 
  1265.64,1336.95 1267.77,1349.31 1269.9,1361.11 1272.04,1372.34 1274.17,1382.98 1276.3,1393.02 1278.44,1402.46 1280.57,1411.27 1282.7,1419.46 1284.83,1427 
  1286.97,1433.89 1289.1,1440.13 1291.23,1445.7 1293.36,1450.6 1295.5,1454.82 1297.63,1458.36 1299.76,1461.22 1301.9,1463.38 1304.03,1464.85 1306.16,1465.63 
  1308.29,1465.71 1310.43,1465.09 1312.56,1463.78 1314.69,1461.77 1316.82,1459.08 1318.96,1455.69 1321.09,1451.62 1323.22,1446.88 1325.36,1441.46 1327.49,1435.37 
  1329.62,1428.63 1331.75,1421.23 1333.89,1413.19 1336.02,1404.52 1338.15,1395.23 1340.28,1385.32 1342.42,1374.82 1344.55,1363.72 1346.68,1352.05 1348.82,1339.82 
  1350.95,1327.04 1353.08,1313.72 1355.21,1299.88 1357.35,1285.54 1359.48,1270.71 1361.61,1255.4 1363.74,1239.63 1365.88,1223.42 1368.01,1206.79 1370.14,1189.75 
  1372.28,1172.31 1374.41,1154.51 1376.54,1136.34 1378.67,1117.84 1380.81,1099.01 1382.94,1079.88 1385.07,1060.46 1387.2,1040.78 1389.34,1020.85 1391.47,1000.68 
  1393.6,980.307 1395.74,959.736 1397.87,938.987 1400,918.081 1402.13,897.035 1404.27,875.868 1406.4,854.598 1408.53,833.244 1410.66,811.823 1412.8,790.355 
  1414.93,768.859 1417.06,747.351 1419.2,725.851 1421.33,704.378 1423.46,682.949 1425.59,661.584 1427.73,640.3 1429.86,619.116 1431.99,598.051 1434.12,577.122 
  1436.26,556.349 1438.39,535.749 1440.52,515.341 1442.66,495.144 1444.79,475.175 1446.92,455.453 1449.05,435.996 1451.19,416.822 1453.32,397.949 1455.45,379.395 
  1457.58,361.177 1459.72,343.314 1461.85,325.822 1463.98,308.719 1466.12,292.023 1468.25,275.749 1470.38,259.915 1472.51,244.537 1474.65,229.631 1476.78,215.213 
  1478.91,201.298 1481.04,187.902 1483.18,175.038 1485.31,162.721 1487.44,150.965 1489.58,139.782 1491.71,129.187 1493.84,119.19 1495.97,109.803 1498.11,101.037 
  1500.24,92.9025 1502.37,85.4089 1504.5,78.5651 1506.64,72.3793 1508.77,66.8588 1510.9,62.0104 1513.04,57.8399 1515.17,54.3523 1517.3,51.552 1519.43,49.4423 
  1521.57,48.0258 1523.7,47.3043 1525.83,47.2786 1527.96,47.9488 1530.1,49.314 1532.23,51.3726 1534.36,54.1221 1536.5,57.5591 1538.63,61.6794 1540.76,66.478 
  1542.89,71.9491 1545.03,78.086 1547.16,84.8815 1549.29,92.3275 1551.42,100.415 1553.56,109.135 1555.69,118.476 1557.82,128.429 1559.96,138.98 
  "/>
<path clip-path="url(#clip2400)" d="
M1114.95 360.204 L1463.96 360.204 L1463.96 178.764 L1114.95 178.764  Z
  " fill="#ffffff" fill-rule="evenodd" fill-opacity="1"/>
<polyline clip-path="url(#clip2400)" style="stroke:#000000; stroke-width:4; stroke-opacity:1; fill:none" points="
  1114.95,360.204 1463.96,360.204 1463.96,178.764 1114.95,178.764 1114.95,360.204 
  "/>
<polyline clip-path="url(#clip2400)" style="stroke:#009af9; stroke-width:4; stroke-opacity:1; fill:none" points="
  1146.95,239.244 1338.95,239.244 
  "/>
<path clip-path="url(#clip2400)" d="M 0 0 M1390.76 231.916 Q1390.76 235.851 1389.5 240.278 Q1388.26 244.681 1386.29 248.241 Q1384.32 251.778 1381.74 254.12 Q1379.17 256.439 1376.71 256.439 Q1375.14 256.439 1373.97 255.572 Q1372.82 254.682 1372.19 253.207 Q1371.56 251.708 1371.25 250.068 Q1370.95 248.405 1370.95 246.602 Q1370.95 243.908 1371.53 240.98 Q1372.12 238.029 1373.1 235.359 Q1374.09 232.665 1375.47 230.229 Q1376.85 227.77 1378.37 225.99 Q1379.92 224.186 1381.65 223.132 Q1383.38 222.078 1385 222.078 Q1386.17 222.078 1387.11 222.594 Q1388.07 223.085 1388.68 223.952 Q1389.29 224.795 1389.71 225.803 Q1390.15 226.81 1390.36 227.981 Q1390.57 229.128 1390.67 230.089 Q1390.76 231.026 1390.76 231.916 M1387.6 228.941 Q1387.6 227.747 1387.51 226.857 Q1387.41 225.943 1387.16 225.03 Q1386.9 224.116 1386.34 223.624 Q1385.8 223.132 1384.95 223.132 Q1382.49 223.132 1379.73 228.168 Q1378.84 229.737 1378.04 231.869 Q1377.25 234 1376.97 235.008 Q1376.69 236.015 1376.03 238.497 L1386.05 238.497 Q1387.6 232.103 1387.6 228.941 M1385.63 240.02 L1375.65 240.02 Q1374.11 245.876 1374.11 249.529 Q1374.11 252.715 1374.76 254.05 Q1375.44 255.362 1376.71 255.362 Q1378.16 255.362 1379.52 253.909 Q1380.88 252.434 1382.26 249.764 Q1384.09 246.297 1385.63 240.02 Z" fill="#000000" fill-rule="evenodd" fill-opacity="1" /><polyline clip-path="url(#clip2400)" style="stroke:#e26f46; stroke-width:4; stroke-opacity:1; fill:none" points="
  1146.95,299.724 1338.95,299.724 
  "/>
<path clip-path="url(#clip2400)" d="M 0 0 M1399.29 292.21 Q1399.29 294.388 1398.19 298.604 Q1397.74 300.431 1397.13 302.094 Q1396.55 303.733 1395.68 305.326 Q1394.81 306.919 1393.81 308.067 Q1392.8 309.191 1391.49 309.893 Q1390.18 310.596 1388.72 310.596 Q1386.43 310.596 1385.07 309.238 Q1383.74 307.856 1383.31 305.49 Q1380.18 310.596 1375.98 310.596 Q1373.38 310.596 1372.16 308.746 Q1370.95 306.872 1370.95 303.733 Q1370.95 301.087 1371.65 298.346 Q1372.98 293.146 1375.58 289.516 Q1375.94 289.094 1376.45 289.094 Q1376.76 289.094 1376.9 289.188 Q1377.32 289.446 1377.32 289.867 Q1377.32 290.172 1377.08 290.476 Q1375.44 292.748 1374.37 294.692 Q1373.29 296.636 1372.8 298.604 Q1372.42 300.29 1372.42 301.719 Q1372.42 304.132 1373.45 305.631 Q1374.51 307.13 1376.59 307.13 Q1378.51 307.13 1380.2 305.935 Q1381.89 304.717 1383.13 302.679 Q1383.2 300.454 1383.74 298.346 Q1384.23 296.098 1385.38 296.098 Q1386.29 296.098 1386.29 297.339 Q1386.29 297.761 1386.1 298.604 Q1385.59 300.829 1384.65 302.82 Q1384.98 304.764 1386.19 305.959 Q1387.41 307.13 1389.36 307.13 Q1391.16 307.13 1392.75 305.818 Q1394.37 304.506 1395.4 302.586 Q1396.45 300.642 1397.04 298.346 Q1397.23 297.573 1397.23 296.59 Q1397.23 293.966 1395.4 292.35 Q1394.88 291.835 1394.88 291.156 Q1394.88 290.359 1395.54 289.633 Q1396.31 288.86 1397.23 288.86 Q1397.91 288.86 1398.33 289.282 Q1399.29 290.125 1399.29 292.21 Z" fill="#000000" fill-rule="evenodd" fill-opacity="1" /><path clip-path="url(#clip2400)" d="
M1813.4 1465.72 L3152.76 1465.72 L3152.76 47.2441 L1813.4 47.2441  Z
  " fill="#ffffff" fill-rule="evenodd" fill-opacity="1"/>
<defs>
  <clipPath id="clip2403">
    <rect x="1813" y="47" width="1340" height="1419"/>
  </clipPath>
</defs>
<polyline clip-path="url(#clip2403)" style="stroke:#000000; stroke-width:2; stroke-opacity:0.1; fill:none" points="
  1984.57,1465.72 1984.57,47.2441 
  "/>
<polyline clip-path="url(#clip2403)" style="stroke:#000000; stroke-width:2; stroke-opacity:0.1; fill:none" points="
  2233.83,1465.72 2233.83,47.2441 
  "/>
<polyline clip-path="url(#clip2403)" style="stroke:#000000; stroke-width:2; stroke-opacity:0.1; fill:none" points="
  2483.08,1465.72 2483.08,47.2441 
  "/>
<polyline clip-path="url(#clip2403)" style="stroke:#000000; stroke-width:2; stroke-opacity:0.1; fill:none" points="
  2732.33,1465.72 2732.33,47.2441 
  "/>
<polyline clip-path="url(#clip2403)" style="stroke:#000000; stroke-width:2; stroke-opacity:0.1; fill:none" points="
  2981.58,1465.72 2981.58,47.2441 
  "/>
<polyline clip-path="url(#clip2403)" style="stroke:#000000; stroke-width:2; stroke-opacity:0.1; fill:none" points="
  1813.4,1395.42 3152.76,1395.42 
  "/>
<polyline clip-path="url(#clip2403)" style="stroke:#000000; stroke-width:2; stroke-opacity:0.1; fill:none" points="
  1813.4,1182.44 3152.76,1182.44 
  "/>
<polyline clip-path="url(#clip2403)" style="stroke:#000000; stroke-width:2; stroke-opacity:0.1; fill:none" points="
  1813.4,969.462 3152.76,969.462 
  "/>
<polyline clip-path="url(#clip2403)" style="stroke:#000000; stroke-width:2; stroke-opacity:0.1; fill:none" points="
  1813.4,756.485 3152.76,756.485 
  "/>
<polyline clip-path="url(#clip2403)" style="stroke:#000000; stroke-width:2; stroke-opacity:0.1; fill:none" points="
  1813.4,543.508 3152.76,543.508 
  "/>
<polyline clip-path="url(#clip2403)" style="stroke:#000000; stroke-width:2; stroke-opacity:0.1; fill:none" points="
  1813.4,330.53 3152.76,330.53 
  "/>
<polyline clip-path="url(#clip2403)" style="stroke:#000000; stroke-width:2; stroke-opacity:0.1; fill:none" points="
  1813.4,117.553 3152.76,117.553 
  "/>
<polyline clip-path="url(#clip2400)" style="stroke:#000000; stroke-width:4; stroke-opacity:1; fill:none" points="
  1813.4,1465.72 3152.76,1465.72 
  "/>
<polyline clip-path="url(#clip2400)" style="stroke:#000000; stroke-width:4; stroke-opacity:1; fill:none" points="
  1813.4,1465.72 1813.4,47.2441 
  "/>
<polyline clip-path="url(#clip2400)" style="stroke:#000000; stroke-width:4; stroke-opacity:1; fill:none" points="
  1984.57,1465.72 1984.57,1482.75 
  "/>
<polyline clip-path="url(#clip2400)" style="stroke:#000000; stroke-width:4; stroke-opacity:1; fill:none" points="
  2233.83,1465.72 2233.83,1482.75 
  "/>
<polyline clip-path="url(#clip2400)" style="stroke:#000000; stroke-width:4; stroke-opacity:1; fill:none" points="
  2483.08,1465.72 2483.08,1482.75 
  "/>
<polyline clip-path="url(#clip2400)" style="stroke:#000000; stroke-width:4; stroke-opacity:1; fill:none" points="
  2732.33,1465.72 2732.33,1482.75 
  "/>
<polyline clip-path="url(#clip2400)" style="stroke:#000000; stroke-width:4; stroke-opacity:1; fill:none" points="
  2981.58,1465.72 2981.58,1482.75 
  "/>
<polyline clip-path="url(#clip2400)" style="stroke:#000000; stroke-width:4; stroke-opacity:1; fill:none" points="
  1813.4,1395.42 1797.33,1395.42 
  "/>
<polyline clip-path="url(#clip2400)" style="stroke:#000000; stroke-width:4; stroke-opacity:1; fill:none" points="
  1813.4,1182.44 1797.33,1182.44 
  "/>
<polyline clip-path="url(#clip2400)" style="stroke:#000000; stroke-width:4; stroke-opacity:1; fill:none" points="
  1813.4,969.462 1797.33,969.462 
  "/>
<polyline clip-path="url(#clip2400)" style="stroke:#000000; stroke-width:4; stroke-opacity:1; fill:none" points="
  1813.4,756.485 1797.33,756.485 
  "/>
<polyline clip-path="url(#clip2400)" style="stroke:#000000; stroke-width:4; stroke-opacity:1; fill:none" points="
  1813.4,543.508 1797.33,543.508 
  "/>
<polyline clip-path="url(#clip2400)" style="stroke:#000000; stroke-width:4; stroke-opacity:1; fill:none" points="
  1813.4,330.53 1797.33,330.53 
  "/>
<polyline clip-path="url(#clip2400)" style="stroke:#000000; stroke-width:4; stroke-opacity:1; fill:none" points="
  1813.4,117.553 1797.33,117.553 
  "/>
<path clip-path="url(#clip2400)" d="M 0 0 M1946.1 1516.31 L1958.58 1516.31 L1958.58 1520.11 L1946.1 1520.11 L1946.1 1516.31 Z" fill="#000000" fill-rule="evenodd" fill-opacity="1" /><path clip-path="url(#clip2400)" d="M 0 0 M1973.65 1499.71 Q1970.04 1499.71 1968.21 1503.28 Q1966.4 1506.82 1966.4 1513.95 Q1966.4 1521.06 1968.21 1524.62 Q1970.04 1528.16 1973.65 1528.16 Q1977.28 1528.16 1979.09 1524.62 Q1980.92 1521.06 1980.92 1513.95 Q1980.92 1506.82 1979.09 1503.28 Q1977.28 1499.71 1973.65 1499.71 M1973.65 1496.01 Q1979.46 1496.01 1982.51 1500.62 Q1985.59 1505.2 1985.59 1513.95 Q1985.59 1522.68 1982.51 1527.28 Q1979.46 1531.87 1973.65 1531.87 Q1967.84 1531.87 1964.76 1527.28 Q1961.7 1522.68 1961.7 1513.95 Q1961.7 1505.2 1964.76 1500.62 Q1967.84 1496.01 1973.65 1496.01 Z" fill="#000000" fill-rule="evenodd" fill-opacity="1" /><path clip-path="url(#clip2400)" d="M 0 0 M1990.66 1525.32 L1995.55 1525.32 L1995.55 1531.2 L1990.66 1531.2 L1990.66 1525.32 Z" fill="#000000" fill-rule="evenodd" fill-opacity="1" /><path clip-path="url(#clip2400)" d="M 0 0 M2013.46 1500.71 L2001.66 1519.16 L2013.46 1519.16 L2013.46 1500.71 M2012.24 1496.64 L2018.12 1496.64 L2018.12 1519.16 L2023.05 1519.16 L2023.05 1523.05 L2018.12 1523.05 L2018.12 1531.2 L2013.46 1531.2 L2013.46 1523.05 L1997.86 1523.05 L1997.86 1518.53 L2012.24 1496.64 Z" fill="#000000" fill-rule="evenodd" fill-opacity="1" /><path clip-path="url(#clip2400)" d="M 0 0 M2196.4 1516.31 L2208.87 1516.31 L2208.87 1520.11 L2196.4 1520.11 L2196.4 1516.31 Z" fill="#000000" fill-rule="evenodd" fill-opacity="1" /><path clip-path="url(#clip2400)" d="M 0 0 M2223.94 1499.71 Q2220.33 1499.71 2218.5 1503.28 Q2216.7 1506.82 2216.7 1513.95 Q2216.7 1521.06 2218.5 1524.62 Q2220.33 1528.16 2223.94 1528.16 Q2227.58 1528.16 2229.38 1524.62 Q2231.21 1521.06 2231.21 1513.95 Q2231.21 1506.82 2229.38 1503.28 Q2227.58 1499.71 2223.94 1499.71 M2223.94 1496.01 Q2229.75 1496.01 2232.81 1500.62 Q2235.89 1505.2 2235.89 1513.95 Q2235.89 1522.68 2232.81 1527.28 Q2229.75 1531.87 2223.94 1531.87 Q2218.13 1531.87 2215.05 1527.28 Q2212 1522.68 2212 1513.95 Q2212 1505.2 2215.05 1500.62 Q2218.13 1496.01 2223.94 1496.01 Z" fill="#000000" fill-rule="evenodd" fill-opacity="1" /><path clip-path="url(#clip2400)" d="M 0 0 M2240.96 1525.32 L2245.84 1525.32 L2245.84 1531.2 L2240.96 1531.2 L2240.96 1525.32 Z" fill="#000000" fill-rule="evenodd" fill-opacity="1" /><path clip-path="url(#clip2400)" d="M 0 0 M2254.94 1527.26 L2271.26 1527.26 L2271.26 1531.2 L2249.31 1531.2 L2249.31 1527.26 Q2251.97 1524.51 2256.56 1519.88 Q2261.16 1515.22 2262.34 1513.88 Q2264.59 1511.36 2265.47 1509.62 Q2266.37 1507.86 2266.37 1506.17 Q2266.37 1503.42 2264.43 1501.68 Q2262.51 1499.95 2259.4 1499.95 Q2257.21 1499.95 2254.75 1500.71 Q2252.32 1501.47 2249.54 1503.02 L2249.54 1498.3 Q2252.37 1497.17 2254.82 1496.59 Q2257.28 1496.01 2259.31 1496.01 Q2264.68 1496.01 2267.88 1498.7 Q2271.07 1501.38 2271.07 1505.87 Q2271.07 1508 2270.26 1509.92 Q2269.47 1511.82 2267.37 1514.41 Q2266.79 1515.08 2263.69 1518.3 Q2260.59 1521.5 2254.94 1527.26 Z" fill="#000000" fill-rule="evenodd" fill-opacity="1" /><path clip-path="url(#clip2400)" d="M 0 0 M2464.6 1499.71 Q2460.98 1499.71 2459.16 1503.28 Q2457.35 1506.82 2457.35 1513.95 Q2457.35 1521.06 2459.16 1524.62 Q2460.98 1528.16 2464.6 1528.16 Q2468.23 1528.16 2470.04 1524.62 Q2471.86 1521.06 2471.86 1513.95 Q2471.86 1506.82 2470.04 1503.28 Q2468.23 1499.71 2464.6 1499.71 M2464.6 1496.01 Q2470.41 1496.01 2473.46 1500.62 Q2476.54 1505.2 2476.54 1513.95 Q2476.54 1522.68 2473.46 1527.28 Q2470.41 1531.87 2464.6 1531.87 Q2458.79 1531.87 2455.71 1527.28 Q2452.65 1522.68 2452.65 1513.95 Q2452.65 1505.2 2455.71 1500.62 Q2458.79 1496.01 2464.6 1496.01 Z" fill="#000000" fill-rule="evenodd" fill-opacity="1" /><path clip-path="url(#clip2400)" d="M 0 0 M2481.61 1525.32 L2486.49 1525.32 L2486.49 1531.2 L2481.61 1531.2 L2481.61 1525.32 Z" fill="#000000" fill-rule="evenodd" fill-opacity="1" /><path clip-path="url(#clip2400)" d="M 0 0 M2501.56 1499.71 Q2497.95 1499.71 2496.12 1503.28 Q2494.32 1506.82 2494.32 1513.95 Q2494.32 1521.06 2496.12 1524.62 Q2497.95 1528.16 2501.56 1528.16 Q2505.2 1528.16 2507 1524.62 Q2508.83 1521.06 2508.83 1513.95 Q2508.83 1506.82 2507 1503.28 Q2505.2 1499.71 2501.56 1499.71 M2501.56 1496.01 Q2507.37 1496.01 2510.43 1500.62 Q2513.51 1505.2 2513.51 1513.95 Q2513.51 1522.68 2510.43 1527.28 Q2507.37 1531.87 2501.56 1531.87 Q2495.75 1531.87 2492.67 1527.28 Q2489.62 1522.68 2489.62 1513.95 Q2489.62 1505.2 2492.67 1500.62 Q2495.75 1496.01 2501.56 1496.01 Z" fill="#000000" fill-rule="evenodd" fill-opacity="1" /><path clip-path="url(#clip2400)" d="M 0 0 M2714.65 1499.71 Q2711.04 1499.71 2709.21 1503.28 Q2707.4 1506.82 2707.4 1513.95 Q2707.4 1521.06 2709.21 1524.62 Q2711.04 1528.16 2714.65 1528.16 Q2718.28 1528.16 2720.09 1524.62 Q2721.92 1521.06 2721.92 1513.95 Q2721.92 1506.82 2720.09 1503.28 Q2718.28 1499.71 2714.65 1499.71 M2714.65 1496.01 Q2720.46 1496.01 2723.51 1500.62 Q2726.59 1505.2 2726.59 1513.95 Q2726.59 1522.68 2723.51 1527.28 Q2720.46 1531.87 2714.65 1531.87 Q2708.84 1531.87 2705.76 1527.28 Q2702.7 1522.68 2702.7 1513.95 Q2702.7 1505.2 2705.76 1500.62 Q2708.84 1496.01 2714.65 1496.01 Z" fill="#000000" fill-rule="evenodd" fill-opacity="1" /><path clip-path="url(#clip2400)" d="M 0 0 M2731.66 1525.32 L2736.55 1525.32 L2736.55 1531.2 L2731.66 1531.2 L2731.66 1525.32 Z" fill="#000000" fill-rule="evenodd" fill-opacity="1" /><path clip-path="url(#clip2400)" d="M 0 0 M2745.64 1527.26 L2761.96 1527.26 L2761.96 1531.2 L2740.02 1531.2 L2740.02 1527.26 Q2742.68 1524.51 2747.26 1519.88 Q2751.87 1515.22 2753.05 1513.88 Q2755.29 1511.36 2756.17 1509.62 Q2757.08 1507.86 2757.08 1506.17 Q2757.08 1503.42 2755.13 1501.68 Q2753.21 1499.95 2750.11 1499.95 Q2747.91 1499.95 2745.46 1500.71 Q2743.03 1501.47 2740.25 1503.02 L2740.25 1498.3 Q2743.07 1497.17 2745.53 1496.59 Q2747.98 1496.01 2750.02 1496.01 Q2755.39 1496.01 2758.58 1498.7 Q2761.78 1501.38 2761.78 1505.87 Q2761.78 1508 2760.97 1509.92 Q2760.18 1511.82 2758.07 1514.41 Q2757.49 1515.08 2754.39 1518.3 Q2751.29 1521.5 2745.64 1527.26 Z" fill="#000000" fill-rule="evenodd" fill-opacity="1" /><path clip-path="url(#clip2400)" d="M 0 0 M2962.86 1499.71 Q2959.25 1499.71 2957.42 1503.28 Q2955.61 1506.82 2955.61 1513.95 Q2955.61 1521.06 2957.42 1524.62 Q2959.25 1528.16 2962.86 1528.16 Q2966.49 1528.16 2968.3 1524.62 Q2970.13 1521.06 2970.13 1513.95 Q2970.13 1506.82 2968.3 1503.28 Q2966.49 1499.71 2962.86 1499.71 M2962.86 1496.01 Q2968.67 1496.01 2971.72 1500.62 Q2974.8 1505.2 2974.8 1513.95 Q2974.8 1522.68 2971.72 1527.28 Q2968.67 1531.87 2962.86 1531.87 Q2957.05 1531.87 2953.97 1527.28 Q2950.91 1522.68 2950.91 1513.95 Q2950.91 1505.2 2953.97 1500.62 Q2957.05 1496.01 2962.86 1496.01 Z" fill="#000000" fill-rule="evenodd" fill-opacity="1" /><path clip-path="url(#clip2400)" d="M 0 0 M2979.87 1525.32 L2984.76 1525.32 L2984.76 1531.2 L2979.87 1531.2 L2979.87 1525.32 Z" fill="#000000" fill-rule="evenodd" fill-opacity="1" /><path clip-path="url(#clip2400)" d="M 0 0 M3002.67 1500.71 L2990.87 1519.16 L3002.67 1519.16 L3002.67 1500.71 M3001.45 1496.64 L3007.33 1496.64 L3007.33 1519.16 L3012.26 1519.16 L3012.26 1523.05 L3007.33 1523.05 L3007.33 1531.2 L3002.67 1531.2 L3002.67 1523.05 L2987.07 1523.05 L2987.07 1518.53 L3001.45 1496.64 Z" fill="#000000" fill-rule="evenodd" fill-opacity="1" /><path clip-path="url(#clip2400)" d="M 0 0 M1691.17 1397.81 L1703.64 1397.81 L1703.64 1401.61 L1691.17 1401.61 L1691.17 1397.81 Z" fill="#000000" fill-rule="evenodd" fill-opacity="1" /><path clip-path="url(#clip2400)" d="M 0 0 M1709.52 1408.76 L1717.16 1408.76 L1717.16 1382.4 L1708.85 1384.06 L1708.85 1379.8 L1717.12 1378.14 L1721.79 1378.14 L1721.79 1408.76 L1729.43 1408.76 L1729.43 1412.7 L1709.52 1412.7 L1709.52 1408.76 Z" fill="#000000" fill-rule="evenodd" fill-opacity="1" /><path clip-path="url(#clip2400)" d="M 0 0 M1734.5 1406.82 L1739.38 1406.82 L1739.38 1412.7 L1734.5 1412.7 L1734.5 1406.82 Z" fill="#000000" fill-rule="evenodd" fill-opacity="1" /><path clip-path="url(#clip2400)" d="M 0 0 M1744.5 1378.14 L1762.86 1378.14 L1762.86 1382.07 L1748.78 1382.07 L1748.78 1390.54 Q1749.8 1390.2 1750.82 1390.03 Q1751.84 1389.85 1752.86 1389.85 Q1758.64 1389.85 1762.02 1393.02 Q1765.4 1396.19 1765.4 1401.61 Q1765.4 1407.19 1761.93 1410.29 Q1758.46 1413.37 1752.14 1413.37 Q1749.96 1413.37 1747.69 1413 Q1745.45 1412.63 1743.04 1411.89 L1743.04 1407.19 Q1745.13 1408.32 1747.35 1408.88 Q1749.57 1409.43 1752.05 1409.43 Q1756.05 1409.43 1758.39 1407.33 Q1760.73 1405.22 1760.73 1401.61 Q1760.73 1398 1758.39 1395.89 Q1756.05 1393.78 1752.05 1393.78 Q1750.17 1393.78 1748.3 1394.2 Q1746.44 1394.62 1744.5 1395.5 L1744.5 1378.14 Z" fill="#000000" fill-rule="evenodd" fill-opacity="1" /><path clip-path="url(#clip2400)" d="M 0 0 M1690.17 1184.84 L1702.65 1184.84 L1702.65 1188.63 L1690.17 1188.63 L1690.17 1184.84 Z" fill="#000000" fill-rule="evenodd" fill-opacity="1" /><path clip-path="url(#clip2400)" d="M 0 0 M1708.53 1195.78 L1716.17 1195.78 L1716.17 1169.42 L1707.86 1171.09 L1707.86 1166.83 L1716.12 1165.16 L1720.8 1165.16 L1720.8 1195.78 L1728.44 1195.78 L1728.44 1199.72 L1708.53 1199.72 L1708.53 1195.78 Z" fill="#000000" fill-rule="evenodd" fill-opacity="1" /><path clip-path="url(#clip2400)" d="M 0 0 M1733.5 1193.84 L1738.39 1193.84 L1738.39 1199.72 L1733.5 1199.72 L1733.5 1193.84 Z" fill="#000000" fill-rule="evenodd" fill-opacity="1" /><path clip-path="url(#clip2400)" d="M 0 0 M1753.46 1168.24 Q1749.85 1168.24 1748.02 1171.8 Q1746.21 1175.34 1746.21 1182.47 Q1746.21 1189.58 1748.02 1193.15 Q1749.85 1196.69 1753.46 1196.69 Q1757.09 1196.69 1758.9 1193.15 Q1760.73 1189.58 1760.73 1182.47 Q1760.73 1175.34 1758.9 1171.8 Q1757.09 1168.24 1753.46 1168.24 M1753.46 1164.53 Q1759.27 1164.53 1762.32 1169.14 Q1765.4 1173.72 1765.4 1182.47 Q1765.4 1191.2 1762.32 1195.81 Q1759.27 1200.39 1753.46 1200.39 Q1747.65 1200.39 1744.57 1195.81 Q1741.51 1191.2 1741.51 1182.47 Q1741.51 1173.72 1744.57 1169.14 Q1747.65 1164.53 1753.46 1164.53 Z" fill="#000000" fill-rule="evenodd" fill-opacity="1" /><path clip-path="url(#clip2400)" d="M 0 0 M1689.94 971.858 L1702.42 971.858 L1702.42 975.654 L1689.94 975.654 L1689.94 971.858 Z" fill="#000000" fill-rule="evenodd" fill-opacity="1" /><path clip-path="url(#clip2400)" d="M 0 0 M1717.49 955.261 Q1713.88 955.261 1712.05 958.826 Q1710.24 962.367 1710.24 969.497 Q1710.24 976.603 1712.05 980.168 Q1713.88 983.71 1717.49 983.71 Q1721.12 983.71 1722.93 980.168 Q1724.75 976.603 1724.75 969.497 Q1724.75 962.367 1722.93 958.826 Q1721.12 955.261 1717.49 955.261 M1717.49 951.557 Q1723.3 951.557 1726.35 956.164 Q1729.43 960.747 1729.43 969.497 Q1729.43 978.224 1726.35 982.83 Q1723.3 987.413 1717.49 987.413 Q1711.68 987.413 1708.6 982.83 Q1705.54 978.224 1705.54 969.497 Q1705.54 960.747 1708.6 956.164 Q1711.68 951.557 1717.49 951.557 Z" fill="#000000" fill-rule="evenodd" fill-opacity="1" /><path clip-path="url(#clip2400)" d="M 0 0 M1734.5 980.862 L1739.38 980.862 L1739.38 986.742 L1734.5 986.742 L1734.5 980.862 Z" fill="#000000" fill-rule="evenodd" fill-opacity="1" /><path clip-path="url(#clip2400)" d="M 0 0 M1744.5 952.182 L1762.86 952.182 L1762.86 956.117 L1748.78 956.117 L1748.78 964.589 Q1749.8 964.242 1750.82 964.08 Q1751.84 963.895 1752.86 963.895 Q1758.64 963.895 1762.02 967.066 Q1765.4 970.238 1765.4 975.654 Q1765.4 981.233 1761.93 984.335 Q1758.46 987.413 1752.14 987.413 Q1749.96 987.413 1747.69 987.043 Q1745.45 986.673 1743.04 985.932 L1743.04 981.233 Q1745.13 982.367 1747.35 982.923 Q1749.57 983.478 1752.05 983.478 Q1756.05 983.478 1758.39 981.372 Q1760.73 979.265 1760.73 975.654 Q1760.73 972.043 1758.39 969.937 Q1756.05 967.83 1752.05 967.83 Q1750.17 967.83 1748.3 968.247 Q1746.44 968.663 1744.5 969.543 L1744.5 952.182 Z" fill="#000000" fill-rule="evenodd" fill-opacity="1" /><path clip-path="url(#clip2400)" d="M 0 0 M1716.49 742.283 Q1712.88 742.283 1711.05 745.848 Q1709.25 749.39 1709.25 756.52 Q1709.25 763.626 1711.05 767.191 Q1712.88 770.732 1716.49 770.732 Q1720.13 770.732 1721.93 767.191 Q1723.76 763.626 1723.76 756.52 Q1723.76 749.39 1721.93 745.848 Q1720.13 742.283 1716.49 742.283 M1716.49 738.58 Q1722.3 738.58 1725.36 743.186 Q1728.44 747.77 1728.44 756.52 Q1728.44 765.246 1725.36 769.853 Q1722.3 774.436 1716.49 774.436 Q1710.68 774.436 1707.6 769.853 Q1704.55 765.246 1704.55 756.52 Q1704.55 747.77 1707.6 743.186 Q1710.68 738.58 1716.49 738.58 Z" fill="#000000" fill-rule="evenodd" fill-opacity="1" /><path clip-path="url(#clip2400)" d="M 0 0 M1733.5 767.885 L1738.39 767.885 L1738.39 773.765 L1733.5 773.765 L1733.5 767.885 Z" fill="#000000" fill-rule="evenodd" fill-opacity="1" /><path clip-path="url(#clip2400)" d="M 0 0 M1753.46 742.283 Q1749.85 742.283 1748.02 745.848 Q1746.21 749.39 1746.21 756.52 Q1746.21 763.626 1748.02 767.191 Q1749.85 770.732 1753.46 770.732 Q1757.09 770.732 1758.9 767.191 Q1760.73 763.626 1760.73 756.52 Q1760.73 749.39 1758.9 745.848 Q1757.09 742.283 1753.46 742.283 M1753.46 738.58 Q1759.27 738.58 1762.32 743.186 Q1765.4 747.77 1765.4 756.52 Q1765.4 765.246 1762.32 769.853 Q1759.27 774.436 1753.46 774.436 Q1747.65 774.436 1744.57 769.853 Q1741.51 765.246 1741.51 756.52 Q1741.51 747.77 1744.57 743.186 Q1747.65 738.58 1753.46 738.58 Z" fill="#000000" fill-rule="evenodd" fill-opacity="1" /><path clip-path="url(#clip2400)" d="M 0 0 M1717.49 529.306 Q1713.88 529.306 1712.05 532.871 Q1710.24 536.413 1710.24 543.542 Q1710.24 550.649 1712.05 554.213 Q1713.88 557.755 1717.49 557.755 Q1721.12 557.755 1722.93 554.213 Q1724.75 550.649 1724.75 543.542 Q1724.75 536.413 1722.93 532.871 Q1721.12 529.306 1717.49 529.306 M1717.49 525.603 Q1723.3 525.603 1726.35 530.209 Q1729.43 534.792 1729.43 543.542 Q1729.43 552.269 1726.35 556.875 Q1723.3 561.459 1717.49 561.459 Q1711.68 561.459 1708.6 556.875 Q1705.54 552.269 1705.54 543.542 Q1705.54 534.792 1708.6 530.209 Q1711.68 525.603 1717.49 525.603 Z" fill="#000000" fill-rule="evenodd" fill-opacity="1" /><path clip-path="url(#clip2400)" d="M 0 0 M1734.5 554.908 L1739.38 554.908 L1739.38 560.788 L1734.5 560.788 L1734.5 554.908 Z" fill="#000000" fill-rule="evenodd" fill-opacity="1" /><path clip-path="url(#clip2400)" d="M 0 0 M1744.5 526.228 L1762.86 526.228 L1762.86 530.163 L1748.78 530.163 L1748.78 538.635 Q1749.8 538.288 1750.82 538.126 Q1751.84 537.94 1752.86 537.94 Q1758.64 537.94 1762.02 541.112 Q1765.4 544.283 1765.4 549.7 Q1765.4 555.278 1761.93 558.38 Q1758.46 561.459 1752.14 561.459 Q1749.96 561.459 1747.69 561.088 Q1745.45 560.718 1743.04 559.977 L1743.04 555.278 Q1745.13 556.413 1747.35 556.968 Q1749.57 557.524 1752.05 557.524 Q1756.05 557.524 1758.39 555.417 Q1760.73 553.311 1760.73 549.7 Q1760.73 546.089 1758.39 543.982 Q1756.05 541.876 1752.05 541.876 Q1750.17 541.876 1748.3 542.292 Q1746.44 542.709 1744.5 543.589 L1744.5 526.228 Z" fill="#000000" fill-rule="evenodd" fill-opacity="1" /><path clip-path="url(#clip2400)" d="M 0 0 M1708.53 343.875 L1716.17 343.875 L1716.17 317.509 L1707.86 319.176 L1707.86 314.917 L1716.12 313.25 L1720.8 313.25 L1720.8 343.875 L1728.44 343.875 L1728.44 347.81 L1708.53 347.81 L1708.53 343.875 Z" fill="#000000" fill-rule="evenodd" fill-opacity="1" /><path clip-path="url(#clip2400)" d="M 0 0 M1733.5 341.931 L1738.39 341.931 L1738.39 347.81 L1733.5 347.81 L1733.5 341.931 Z" fill="#000000" fill-rule="evenodd" fill-opacity="1" /><path clip-path="url(#clip2400)" d="M 0 0 M1753.46 316.329 Q1749.85 316.329 1748.02 319.894 Q1746.21 323.435 1746.21 330.565 Q1746.21 337.671 1748.02 341.236 Q1749.85 344.778 1753.46 344.778 Q1757.09 344.778 1758.9 341.236 Q1760.73 337.671 1760.73 330.565 Q1760.73 323.435 1758.9 319.894 Q1757.09 316.329 1753.46 316.329 M1753.46 312.625 Q1759.27 312.625 1762.32 317.232 Q1765.4 321.815 1765.4 330.565 Q1765.4 339.292 1762.32 343.898 Q1759.27 348.482 1753.46 348.482 Q1747.65 348.482 1744.57 343.898 Q1741.51 339.292 1741.51 330.565 Q1741.51 321.815 1744.57 317.232 Q1747.65 312.625 1753.46 312.625 Z" fill="#000000" fill-rule="evenodd" fill-opacity="1" /><path clip-path="url(#clip2400)" d="M 0 0 M1709.52 130.898 L1717.16 130.898 L1717.16 104.532 L1708.85 106.199 L1708.85 101.94 L1717.12 100.273 L1721.79 100.273 L1721.79 130.898 L1729.43 130.898 L1729.43 134.833 L1709.52 134.833 L1709.52 130.898 Z" fill="#000000" fill-rule="evenodd" fill-opacity="1" /><path clip-path="url(#clip2400)" d="M 0 0 M1734.5 128.953 L1739.38 128.953 L1739.38 134.833 L1734.5 134.833 L1734.5 128.953 Z" fill="#000000" fill-rule="evenodd" fill-opacity="1" /><path clip-path="url(#clip2400)" d="M 0 0 M1744.5 100.273 L1762.86 100.273 L1762.86 104.208 L1748.78 104.208 L1748.78 112.68 Q1749.8 112.333 1750.82 112.171 Q1751.84 111.986 1752.86 111.986 Q1758.64 111.986 1762.02 115.157 Q1765.4 118.328 1765.4 123.745 Q1765.4 129.324 1761.93 132.426 Q1758.46 135.504 1752.14 135.504 Q1749.96 135.504 1747.69 135.134 Q1745.45 134.764 1743.04 134.023 L1743.04 129.324 Q1745.13 130.458 1747.35 131.014 Q1749.57 131.569 1752.05 131.569 Q1756.05 131.569 1758.39 129.463 Q1760.73 127.356 1760.73 123.745 Q1760.73 120.134 1758.39 118.027 Q1756.05 115.921 1752.05 115.921 Q1750.17 115.921 1748.3 116.338 Q1746.44 116.754 1744.5 117.634 L1744.5 100.273 Z" fill="#000000" fill-rule="evenodd" fill-opacity="1" /><polyline clip-path="url(#clip2400)" style="stroke:#000000; stroke-width:4; stroke-opacity:1; fill:none" points="
  1813.4,47.2441 3152.76,47.2441 
  "/>
<polyline clip-path="url(#clip2400)" style="stroke:#000000; stroke-width:4; stroke-opacity:1; fill:none" points="
  3152.76,1465.72 3152.76,47.2441 
  "/>
<path clip-path="url(#clip2400)" d="M 0 0 M2495.01 1562.87 Q2495.01 1568.28 2493.27 1574.37 Q2491.57 1580.42 2488.86 1585.32 Q2486.16 1590.18 2482.61 1593.4 Q2479.07 1596.59 2475.69 1596.59 Q2473.53 1596.59 2471.92 1595.4 Q2470.34 1594.17 2469.47 1592.15 Q2468.6 1590.08 2468.19 1587.83 Q2467.77 1585.54 2467.77 1583.06 Q2467.77 1579.36 2468.57 1575.33 Q2469.38 1571.28 2470.73 1567.6 Q2472.08 1563.9 2473.98 1560.55 Q2475.88 1557.17 2477.98 1554.72 Q2480.1 1552.24 2482.48 1550.79 Q2484.87 1549.34 2487.09 1549.34 Q2488.7 1549.34 2489.99 1550.05 Q2491.31 1550.73 2492.15 1551.92 Q2492.98 1553.08 2493.56 1554.46 Q2494.18 1555.85 2494.47 1557.46 Q2494.76 1559.04 2494.88 1560.36 Q2495.01 1561.65 2495.01 1562.87 M2490.67 1558.78 Q2490.67 1557.14 2490.54 1555.91 Q2490.41 1554.66 2490.05 1553.4 Q2489.7 1552.15 2488.93 1551.47 Q2488.19 1550.79 2487.03 1550.79 Q2483.64 1550.79 2479.84 1557.72 Q2478.62 1559.88 2477.53 1562.81 Q2476.43 1565.74 2476.04 1567.12 Q2475.66 1568.51 2474.76 1571.92 L2488.54 1571.92 Q2490.67 1563.13 2490.67 1558.78 M2487.96 1574.01 L2474.24 1574.01 Q2472.11 1582.07 2472.11 1587.09 Q2472.11 1591.47 2473.02 1593.31 Q2473.95 1595.11 2475.69 1595.11 Q2477.69 1595.11 2479.55 1593.11 Q2481.42 1591.08 2483.32 1587.41 Q2485.83 1582.64 2487.96 1574.01 Z" fill="#000000" fill-rule="evenodd" fill-opacity="1" /><path clip-path="url(#clip2400)" d="M 0 0 M1648.26 737.82 Q1651.26 737.82 1657.06 739.334 Q1659.57 739.945 1661.86 740.783 Q1664.11 741.588 1666.3 742.78 Q1668.49 743.971 1670.07 745.356 Q1671.61 746.741 1672.58 748.544 Q1673.55 750.348 1673.55 752.345 Q1673.55 755.501 1671.68 757.369 Q1669.78 759.205 1666.53 759.784 Q1673.55 764.1 1673.55 769.865 Q1673.55 773.44 1671 775.114 Q1668.43 776.789 1664.11 776.789 Q1660.47 776.789 1656.7 775.823 Q1649.55 773.987 1644.56 770.412 Q1643.98 769.929 1643.98 769.221 Q1643.98 768.802 1644.11 768.609 Q1644.46 768.029 1645.04 768.029 Q1645.46 768.029 1645.88 768.351 Q1649.01 770.605 1651.68 772.087 Q1654.35 773.568 1657.06 774.245 Q1659.38 774.76 1661.34 774.76 Q1664.66 774.76 1666.72 773.343 Q1668.78 771.894 1668.78 769.027 Q1668.78 766.386 1667.14 764.068 Q1665.46 761.749 1662.66 760.042 Q1659.6 759.945 1656.7 759.205 Q1653.61 758.528 1653.61 756.95 Q1653.61 755.694 1655.32 755.694 Q1655.9 755.694 1657.06 755.952 Q1660.12 756.66 1662.85 757.949 Q1665.53 757.498 1667.17 755.823 Q1668.78 754.148 1668.78 751.475 Q1668.78 748.995 1666.98 746.805 Q1665.17 744.583 1662.53 743.166 Q1659.86 741.717 1656.7 740.912 Q1655.64 740.654 1654.29 740.654 Q1650.68 740.654 1648.46 743.166 Q1647.75 743.875 1646.82 743.875 Q1645.72 743.875 1644.72 742.973 Q1643.66 741.91 1643.66 740.654 Q1643.66 739.72 1644.24 739.14 Q1645.4 737.82 1648.26 737.82 Z" fill="#000000" fill-rule="evenodd" fill-opacity="1" /><polyline clip-path="url(#clip2403)" style="stroke:#009af9; stroke-width:4; stroke-opacity:1; fill:none" points="
  2483.08,87.3969 2502.66,87.7251 2522.21,88.7094 2541.73,90.3487 2561.19,92.6408 2580.58,95.5831 2599.87,99.1718 2619.04,103.403 2638.08,108.271 2656.97,113.77 
  2675.69,119.893 2694.22,126.634 2712.55,133.984 2730.65,141.934 2748.51,150.476 2766.11,159.599 2783.44,169.292 2800.47,179.545 2817.2,190.346 2833.6,201.683 
  2849.66,213.542 2865.37,225.911 2880.71,238.777 2895.66,252.125 2910.22,265.941 2924.37,280.211 2938.09,294.918 2951.38,310.049 2964.22,325.587 2976.59,341.517 
  2988.5,357.823 2999.92,374.488 3010.85,391.496 3021.28,408.831 3031.2,426.475 3040.59,444.413 3049.46,462.626 3057.79,481.099 3065.57,499.813 3072.81,518.753 
  3079.48,537.9 3085.6,557.237 3091.14,576.748 3096.11,596.414 3100.51,616.219 3104.32,636.145 3107.55,656.174 3110.19,676.29 3112.24,696.475 3113.7,716.711 
  3114.57,736.982 3114.85,757.269 3114.53,777.556 3113.61,797.824 3112.11,818.057 3110.01,838.237 3107.32,858.347 3104.05,878.37 3100.19,898.287 3095.75,918.081 
  3090.74,937.736 3085.15,957.234 3078.99,976.558 3072.27,995.689 3064.99,1014.61 3057.16,1033.31 3048.79,1051.76 3039.89,1069.95 3030.45,1087.87 3020.49,1105.49 
  3010.03,1122.8 2999.06,1139.78 2987.6,1156.42 2975.66,1172.7 2963.24,1188.6 2950.37,1204.11 2937.05,1219.21 2923.29,1233.88 2909.11,1248.12 2894.53,1261.9 
  2879.54,1275.21 2864.17,1288.04 2848.44,1300.37 2832.35,1312.19 2815.92,1323.48 2799.17,1334.24 2782.11,1344.45 2764.76,1354.1 2747.14,1363.18 2729.26,1371.68 
  2711.14,1379.58 2692.8,1386.88 2674.25,1393.58 2655.52,1399.65 2636.62,1405.1 2617.56,1409.92 2598.38,1414.1 2579.08,1417.64 2559.69,1420.54 2540.22,1422.78 
  2520.7,1424.37 2501.14,1425.3 2481.57,1425.58 2461.99,1425.2 2442.44,1424.16 2422.92,1422.47 2403.46,1420.13 2384.09,1417.14 2364.8,1413.5 2345.64,1409.22 
  2326.61,1404.3 2307.73,1398.76 2289.03,1392.58 2270.51,1385.8 2252.2,1378.4 2234.12,1370.4 2216.28,1361.82 2198.7,1352.65 2181.39,1342.91 2164.38,1332.62 
  2147.68,1321.77 2131.3,1310.39 2115.27,1298.5 2099.58,1286.09 2084.27,1273.18 2069.35,1259.8 2054.82,1245.95 2040.71,1231.64 2027.02,1216.9 2013.77,1201.74 
  2000.96,1186.17 1988.62,1170.21 1976.75,1153.88 1965.37,1137.18 1954.48,1120.15 1944.09,1102.79 1934.21,1085.12 1924.86,1067.16 1916.03,1048.93 1907.74,1030.44 
  1900,1011.7 1892.81,992.747 1886.18,973.584 1880.11,954.233 1874.6,934.709 1869.68,915.031 1865.33,895.216 1861.56,875.282 1858.37,855.245 1855.78,835.123 
  1853.77,814.933 1852.36,794.693 1851.54,774.42 1851.31,754.132 1851.67,733.846 1852.63,713.58 1854.19,693.35 1856.33,673.174 1859.06,653.07 1862.38,633.056 
  1866.28,613.147 1870.77,593.362 1875.83,573.719 1881.46,554.233 1887.66,534.924 1894.43,515.808 1901.75,496.902 1909.62,478.223 1918.03,459.789 1926.98,441.617 
  1936.45,423.723 1946.45,406.125 1956.96,388.84 1967.96,371.883 1979.46,355.272 1991.44,339.023 2003.89,323.153 2016.8,307.676 2030.15,292.609 2043.94,277.968 
  2058.15,263.767 2072.77,250.022 2087.79,236.748 2103.19,223.957 2118.95,211.666 2135.07,199.886 2151.52,188.631 2168.29,177.914 2185.38,167.746 2202.75,158.14 
  2220.39,149.106 2238.29,140.655 2256.42,132.796 2274.78,125.54 2293.34,118.893 2312.09,112.866 2331.01,107.464 2350.07,102.693 2369.26,98.5612 2388.57,95.0719 
  2407.97,92.2297 2427.44,90.0381 2446.97,88.4998 2466.53,87.6166 2486.11,87.3897 2505.68,87.8194 2525.23,88.9051 2544.74,90.6454 2564.2,93.0383 2583.57,96.0808 
  2602.84,99.7692 2622,104.099 2641.02,109.065 2659.88,114.661 2678.57,120.881 2697.07,127.716 2715.37,135.16 2733.43,143.202 2751.25,151.835 2768.81,161.047 
  2786.1,170.828 2803.08,181.166 2819.76,192.051 2836.11,203.469 2852.12,215.409 2867.77,227.856 2883.06,240.797 2897.95,254.219 2912.45,268.106 2926.53,282.445 
  2940.19,297.219 2953.4,312.414 2966.17,328.014 2978.48,344.004 2990.31,360.366 3001.66,377.086 3012.51,394.146 3022.86,411.53 3032.69,429.221 3042.01,447.203 
  3050.79,465.458 3059.04,483.969 3066.74,502.72 3073.89,521.693 3080.48,540.871 3086.51,560.237 3091.96,579.773 3096.85,599.462 3101.15,619.287 3104.87,639.231 
  3108.01,659.275 3110.56,679.403 3112.52,699.598 3113.89,719.841 3114.67,740.116 3114.85,760.404 3114.44,780.69 3113.43,800.954 3111.84,821.181 3109.65,841.352 
  3106.87,861.45 3103.51,881.457 3099.56,901.357 3095.03,921.132 3089.92,940.764 3084.25,960.236 3078,979.532 3071.19,998.633 3063.83,1017.52 3055.92,1036.18 
  3047.46,1054.6 3038.47,1072.75 3028.96,1090.62 3018.92,1108.19 3008.38,1125.46 2997.33,1142.39 2985.8,1158.97 2973.78,1175.19 2961.29,1191.03 2948.35,1206.48 
  2934.96,1221.51 2921.14,1236.12 2906.9,1250.29 2892.24,1264 2877.2,1277.23 2861.77,1289.99 2845.98,1302.24 2829.84,1313.98 2813.36,1325.19 2796.56,1335.87 
  2779.46,1345.99 2762.06,1355.55 2744.4,1364.54 2726.48,1372.95 2708.33,1380.76 2689.95,1387.97 2671.37,1394.57 2652.61,1400.55 2633.69,1405.9 2614.61,1410.63 
  2595.41,1414.71 2576.09,1418.15 2556.69,1420.94 2537.21,1423.08 2517.68,1424.57 2498.12,1425.4 2478.54,1425.58 2458.97,1425.1 2439.42,1423.96 2419.91,1422.17 
  2400.46,1419.73 2381.1,1416.63 2361.83,1412.9 2342.69,1408.52 2323.68,1403.5 2304.83,1397.86 2286.15,1391.59 2267.66,1384.71 2249.39,1377.22 2231.34,1369.13 
  2213.54,1360.45 2196,1351.19 2178.74,1341.37 2161.77,1330.99 2145.12,1320.06 2128.79,1308.6 2112.81,1296.62 2097.19,1284.14 2081.93,1271.16 2067.07,1257.7 
  2052.6,1243.78 2038.55,1229.4 2024.93,1214.6 2011.75,1199.37 1999.02,1183.74 1986.75,1167.72 1974.95,1151.33 1963.64,1134.58 1952.83,1117.5 1942.52,1100.09 
  1932.72,1082.37 1923.45,1064.37 1914.7,1046.09 1906.5,1027.56 1898.84,1008.8 1891.73,989.805 1885.19,970.612 1879.2,951.232 1873.79,931.683 1868.95,911.983 
  1864.69,892.148 1861.01,872.196 1857.92,852.144 1855.42,832.01 1853.5,811.811 1852.18,791.565 1851.45,771.288 1851.31,750.999 1851.77,730.714 1852.82,710.452 
  1854.46,690.229 1856.7,670.063 1859.52,649.971 1862.93,629.971 1866.92,610.08 1871.5,590.315 1876.65,570.695 1882.37,551.235 1888.66,531.954 1895.51,512.868 
  1902.91,493.996 1910.87,475.354 1919.36,456.959 1928.39,438.828 1937.95,420.978 1948.03,403.427 1958.61,386.191 1969.69,369.287 1981.27,352.73 1993.32,336.538 
  2005.84,320.727 2018.82,305.312 2032.24,290.31 2046.1,275.735 2060.37,261.604 2075.06,247.93 2090.13,234.729 2105.59,222.015 2121.41,209.801 2137.58,198.101 
  2154.08,186.928 2170.91,176.295 2188.03,166.213 2205.45,156.694 2223.13,147.749 2241.07,139.389 2259.24,131.622 2277.63,124.459 2296.22,117.908 2315,111.976 
  2333.94,106.671 2353.02,101.999 2372.24,97.9656 2391.56,94.5758 2410.97,91.8338 2430.45,89.7429 2449.98,88.3056 2469.55,87.5237 2489.13,87.3982 2508.7,87.9292 
  2528.25,89.1161 2547.75,90.9574 2567.19,93.4508 2586.55,96.5934 2605.81,100.381 2624.95,104.81 2643.94,109.874 2662.78,115.567 2681.45,121.882 2699.92,128.812 
  2718.18,136.349 2736.21,144.483 2753.99,153.206 2771.51,162.507 2788.75,172.375 2805.69,182.799 2822.32,193.767 2838.62,205.267 2854.57,217.286 2870.17,229.81 
  2885.39,242.827 2900.22,256.322 2914.66,270.28 2928.68,284.687 2942.27,299.528 2955.42,314.787 2968.11,330.449 2980.35,346.497 2992.1,362.916 3003.38,379.69 
  3014.15,396.801 3024.42,414.234 3034.18,431.972 3043.41,449.997 3052.11,468.293 3060.28,486.843 3067.89,505.63 3074.96,524.636 3081.46,543.844 3087.4,563.238 
  3092.77,582.799 3097.56,602.511 3101.78,622.356 3105.41,642.317 3108.46,662.375 3110.92,682.515 3112.79,702.719 3114.06,722.968 3114.75,743.247 3114.84,763.537 
  3114.34,783.82 3113.24,804.081 3111.55,824.3 3109.27,844.461 3106.4,864.547 3102.95,884.539 3098.91,904.421 3094.29,924.175 3089.1,943.785 3083.33,963.231 
  3077,982.498 3070.11,1001.57 3062.66,1020.42 3054.66,1039.05 3046.12,1057.42 3037.05,1075.53 3027.45,1093.36 3017.34,1110.89 3006.72,1128.1 2995.59,1144.98 
  2983.98,1161.51 2971.89,1177.67 2959.34,1193.45 2946.32,1208.83 2932.87,1223.8 2918.98,1238.35 2904.67,1252.44 2889.96,1266.08 2874.85,1279.24 2859.37,1291.92 
  2843.52,1304.1 2827.32,1315.76 2810.79,1326.89 2793.95,1337.48 2776.8,1347.52 2759.36,1356.99 2741.66,1365.89 2723.7,1374.21 2705.51,1381.93 2687.1,1389.04 
  2668.49,1395.55 2649.71,1401.43 2630.75,1406.69 2611.66,1411.31 2592.44,1415.3 2573.11,1418.64 2553.69,1421.33 2534.2,1423.37 2514.67,1424.76 2495.1,1425.49 
  2475.52,1425.56 2455.95,1424.98 2436.4,1423.74 2416.9,1421.85 2397.47,1419.31 2378.12,1416.11 2358.87,1412.28 2339.74,1407.8 2320.75,1402.69 2301.93,1396.95 
  2283.28,1390.58 2264.82,1383.6 2246.58,1376.02 2228.57,1367.84 2210.81,1359.07 2193.31,1349.73 2176.09,1339.82 2159.17,1329.35 2142.57,1318.34 2126.3,1306.8 
  2110.37,1294.74 2094.8,1282.18 2079.61,1269.12 2064.8,1255.59 2050.4,1241.6 2036.41,1227.16 2022.86,1212.28 2009.74,1196.99 1997.08,1181.3 1984.88,1165.22 
  1973.16,1148.78 1961.93,1131.98 1951.19,1114.84 1940.96,1097.38 1931.24,1079.62 1922.05,1061.57 1913.39,1043.26 1905.27,1024.69 1897.69,1005.88 1890.67,986.862 
  1884.21,967.638 1878.32,948.231 1872.99,928.657 1868.24,908.934 1864.07,889.079 1860.48,869.11 1857.48,849.044 1855.07,828.899 1853.24,808.691 1852.01,788.438 
  1851.37,768.158 1851.33,747.868 1851.88,727.585 1853.02,707.327 1854.75,687.112 1857.08,666.955 1859.99,646.876 1863.49,626.891 1867.58,607.018 1872.24,587.275 
  1877.48,567.677 1883.29,548.244 1889.66,528.991 1896.6,509.937 1904.09,491.098 1912.13,472.493 1920.71,454.137 1929.82,436.048 1939.46,418.243 1949.61,400.739 
  1960.28,383.553 1971.44,366.701 1983.08,350.199 1995.21,334.064 2007.8,318.313 2020.85,302.96 2034.34,288.023 2048.26,273.515 2062.6,259.453 2077.35,245.851 
  2092.48,232.724 2108,220.085 2123.87,207.95 2140.09,196.33 2156.65,185.239 2173.52,174.69 2190.69,164.694 2208.15,155.263 2225.87,146.407 2243.85,138.138 
  2262.06,130.464 2280.48,123.394 2299.1,116.938 2317.91,111.102 2336.87,105.894 2355.98,101.32 2375.21,97.3858 2394.54,94.0956 2413.97,91.4538 2433.46,89.4635 
  2453,88.1272 2472.57,87.4465 2492.15,87.4223 2511.72,88.0545 2531.26,89.3425 2550.76,91.2846 2570.19,93.8785 2589.53,97.1209 2608.77,101.008 2627.89,105.535 
  2646.86,110.696 2665.68,116.486 2684.31,122.897 2702.75,129.921 2720.98,137.551 2738.97,145.777 2756.71,154.59 2774.19,163.979 2791.39,173.934 
  "/>
</svg>
